<?xml version="1.0" encoding="UTF-8"?>
<!DOCTYPE svg PUBLIC "-//W3C//DTD SVG 1.1//EN" "http://www.w3.org/Graphics/SVG/1.1/DTD/svg11.dtd">
<!-- Creator: CorelDRAW -->
<svg xmlns="http://www.w3.org/2000/svg" xml:space="preserve" width="63.6998mm" height="89.1004mm" version="1.1" style="shape-rendering:geometricPrecision; text-rendering:geometricPrecision; image-rendering:optimizeQuality; fill-rule:evenodd; clip-rule:evenodd"
viewBox="0 0 743.37 1039.79"
 xmlns:xlink="http://www.w3.org/1999/xlink"
 xmlns:xodm="http://www.corel.com/coreldraw/odm/2003">
 <defs>
  <style type="text/css">
   <![CDATA[
    .str0 {stroke:black;stroke-width:2.33;stroke-miterlimit:22.9256}
    .fil2 {fill:#FEFEFE}
    .fil1 {fill:#144D7D}
    .fil0 {fill:white}
   ]]>
  </style>
 </defs>
 <g id="Слой_x0020_1">
  <metadata id="CorelCorpID_0Corel-Layer"/>
  <rect class="fil0 str0" x="1.17" y="1.17" width="741.03" height="1037.46" rx="34.69" ry="55.86"/>
  <g id="_1708809795056">
   <path class="fil1" d="M80.46 45.32l582.45 0c19.33,0 35.15,15.81 35.15,35.15l0 878.87c0,19.33 -15.81,35.15 -35.15,35.15l-582.45 0c-19.33,0 -35.15,-15.81 -35.15,-35.15l0 -878.87c0,-19.33 15.81,-35.15 35.15,-35.15z"/>
   <path class="fil2" d="M84.27 45.32l7.71 0 3.79 5.34 3.79 -5.34 7.72 0 -7.65 10.78 11.91 16.79 11.92 -16.79 -7.65 -10.78 7.71 0 3.79 5.34 3.79 -5.34 7.71 0 -7.66 10.78 11.93 16.79 11.9 -16.79 -7.64 -10.78 7.72 0 3.79 5.34 3.8 -5.34 7.71 0 -7.66 10.78 11.93 16.79 11.9 -16.79 -7.64 -10.78 7.7 0 3.79 5.34 3.79 -5.34 7.73 0 -7.66 10.78 11.93 16.79 11.9 -16.79 -7.64 -10.78 7.7 0 3.79 5.34 3.8 -5.34 7.71 0 -7.66 10.78 11.93 16.79 11.9 -16.78 -7.64 -10.79 7.72 0 3.79 5.34 3.79 -5.34 7.72 0 -7.66 10.79 11.93 16.78 11.91 -16.78 -7.65 -10.79 7.7 0 3.79 5.34 3.79 -5.34 7.73 0 -7.66 10.79 11.93 16.78 11.9 -16.78 -7.64 -10.79 7.71 0 3.79 5.34 3.79 -5.34 7.72 0 -7.66 10.79 11.93 16.78 11.9 -16.79 -7.64 -10.78 7.71 0 3.79 5.34 3.79 -5.34 7.72 0 -7.65 10.78 11.91 16.79 11.9 -16.79 -7.64 -10.78 7.7 0 3.79 5.34 3.79 -5.34 7.71 0 -7.65 10.79 11.9 16.79 11.91 -16.79 -7.66 -10.79 7.73 0 3.8 5.36 3.8 -5.36 7.7 0 -7.65 10.79 11.9 16.79 11.93 -16.79 -7.67 -10.79 7.71 0 3.8 5.36 3.8 -5.36 7.72 0 -7.65 10.79 11.9 16.79 11.91 -16.78 -7.66 -10.81 7.72 0 3.8 5.36 3.8 -5.36 7.71 0 -7.66 10.81 11.9 16.78 11.93 -16.78 -7.67 -10.81 7.73 0 3.8 5.36 3.79 -5.36 7.71 0 -7.65 10.81 11.9 16.78 11.93 -16.78 -7.67 -10.81 7.71 0 3.8 5.36 3.8 -5.36 7.72 0 -7.66 10.81 11.9 16.78 11.93 -16.79 -7.67 -10.79 7.72 0 3.8 5.36 3.8 -5.36 7.7 0 -7.65 10.79 11.9 16.79 11.92 -16.79 -7.66 -10.79 7.73 0 3.8 5.36 3.8 -5.36 7.7 0 -7.65 10.79 11.9 16.79 11.91 -16.79 -7.66 -10.79 7.72 0 3.8 5.36 3.8 -5.36 7.71 0 -7.65 10.79 11.91 16.79 11.91 -16.79 -7.66 -10.79 7.72 0 3.8 5.36 3.63 -5.12c2.3,0.27 4.53,0.76 6.68,1.46l-6.45 9.1 11.91 16.79 10.66 -15.02c1.44,1.7 2.71,3.55 3.81,5.5l-10.61 14.96 11.91 16.81 3.15 -4.45 0 19.76 -3.15 -4.44 -11.91 16.8 11.91 16.79 3.15 -4.44 0 19.77 -3.15 -4.44 -11.91 16.8 11.91 16.79 3.15 -4.44 0 19.75 -3.15 -4.45 -11.91 16.81 11.91 16.8 3.15 -4.44 0 19.74 -3.15 -4.44 -11.91 16.79 11.91 16.79 3.15 -4.44 0 19.77 -3.15 -4.44 -11.91 16.79 11.91 16.81 3.15 -4.45 0 19.76 -3.15 -4.44 -11.91 16.8 11.91 16.79 3.15 -4.44 0 19.76 -3.15 -4.44 -11.91 16.79 11.91 16.8 3.15 -4.44 0 19.75 -3.15 -4.44 -11.91 16.8 11.91 16.8 3.15 -4.44 0 19.76 -3.15 -4.45 -11.91 16.81 11.91 16.79 3.15 -4.44 0 19.74 -3.15 -4.44 -11.91 16.79 11.91 16.8 3.15 -4.44 0 19.76 -3.15 -4.44 -11.91 16.78 11.91 16.83 3.15 -4.45 0 19.76 -3.15 -4.44 -11.91 16.79 11.91 16.79 3.15 -4.44 0 19.76 -3.15 -4.44 -11.91 16.77 11.91 16.82 3.15 -4.45 0 19.76 -3.15 -4.45 -11.91 16.81 11.91 16.79 3.15 -4.44 0 19.77 -3.15 -4.44 -11.91 16.79 11.91 16.79 3.15 -4.44 0 19.77 -3.15 -4.44 -11.91 16.8 11.91 16.79 3.15 -4.44 0 19.76 -3.15 -4.44 -11.91 16.77 11.91 16.81 3.15 -4.45 0 19.78 -3.15 -4.44 -11.91 16.79 11.91 16.79 3.15 -4.44 0 19.74 -3.15 -4.45 -11.91 16.81 11.91 16.81 3.15 -4.45 0 19.75 -3.15 -4.45 -11.91 16.82 8.49 11.97c-1.26,1.75 -2.68,3.39 -4.23,4.88l-8.12 -11.43 -11.91 16.78 2.69 3.79c-2.26,0.46 -4.6,0.71 -7,0.71l-6.59 0 3.19 -4.5 -11.91 -16.78 -11.91 16.78 3.19 4.5 -14.1 0 3.19 -4.5 -11.91 -16.78 -11.9 16.78 3.18 4.5 -14.09 0 3.19 -4.5 -11.92 -16.78 -11.9 16.78 3.19 4.5 -14.07 0 3.19 -4.5 -11.93 -16.78 -11.9 16.78 3.19 4.5 -14.08 0 3.19 -4.5 -11.93 -16.78 -11.9 16.78 3.18 4.5 -14.09 0 3.19 -4.5 -11.93 -16.78 -11.9 16.78 3.19 4.5 -14.08 0 3.19 -4.5 -11.91 -16.78 -11.9 16.78 3.18 4.5 -14.09 0 3.19 -4.5 -11.93 -16.78 -11.9 16.78 3.18 4.5 -14.09 0 3.19 -4.5 -11.91 -16.78 -11.9 16.78 3.19 4.5 -14.08 0 3.2 -4.51 -11.9 -16.78 -11.91 16.78 3.2 4.51 -14.11 0 3.2 -4.51 -11.9 -16.78 -11.93 16.78 3.2 4.51 -14.09 0 3.19 -4.51 -11.9 -16.78 -11.93 16.78 3.2 4.51 -14.1 0 3.2 -4.51 -11.91 -16.78 -11.93 16.78 3.2 4.51 -14.1 0 3.19 -4.51 -11.9 -16.78 -11.93 16.78 3.2 4.51 -14.09 0 3.19 -4.51 -11.9 -16.78 -11.93 16.78 3.2 4.51 -14.1 0 3.2 -4.51 -11.9 -16.78 -11.93 16.78 3.2 4.51 -14.1 0 3.2 -4.51 -11.9 -16.78 -11.93 16.78 3.2 4.51 -14.09 0 3.2 -4.51 -11.92 -16.78 -11.91 16.78 3.2 4.51 -14.1 0 3.2 -4.51 -11.91 -16.78 -11.92 16.78 2.11 2.97c-4.74,-1.46 -9.07,-3.9 -12.73,-7.08l-8.99 -12.67 -0.18 0.25c-1.91,-4.32 -2.97,-9.09 -2.97,-14.1l0 -1.47 3.15 4.43 11.91 -16.77 -11.91 -16.82 -3.15 4.45 0 -19.77 3.15 4.44 11.91 -16.78 -11.91 -16.81 -3.15 4.45 0 -19.75 3.15 4.45 11.91 -16.81 -11.91 -16.78 -3.15 4.44 0 -19.76 3.15 4.45 11.91 -16.82 -11.91 -16.77 -3.15 4.43 0 -19.77 3.15 4.44 11.91 -16.79 -11.91 -16.79 -3.15 4.44 0 -19.77 3.15 4.45 11.91 -16.82 -11.91 -16.78 -3.15 4.44 0 -19.77 3.15 4.45 11.91 -16.82 -11.91 -16.79 -3.15 4.44 0 -19.75 3.15 4.45 11.91 -16.82 -11.91 -16.77 -3.15 4.44 0 -19.76 3.15 4.44 11.91 -16.8 -11.91 -16.82 -3.15 4.45 0 -19.74 3.15 4.44 11.91 -16.78 -11.91 -16.82 -3.15 4.45 0 -19.77 3.15 4.44 11.91 -16.79 -11.91 -16.8 -3.15 4.44 0 -19.74 3.15 4.45 11.91 -16.82 -11.91 -16.79 -3.15 4.44 0 -19.76 3.15 4.44 11.91 -16.81 -11.91 -16.8 -3.15 4.44 0 -19.74 3.15 4.44 11.91 -16.79 -11.91 -16.8 -3.15 4.44 0 -19.77 3.15 4.45 11.91 -16.81 -11.91 -16.77 -3.15 4.43 0 -19.77 3.15 4.44 11.91 -16.79 -11.91 -16.8 -3.15 4.44 0 -19.76 3.15 4.43 11.91 -16.77 -11.91 -16.81 -3.15 4.45 0 -19.77 3.15 4.44 11.91 -16.79 -11.91 -16.79 -3.15 4.44 0 -19.75 3.15 4.44 11.91 -16.81 -11.91 -16.8 -3.15 4.44 0 -19.75 3.15 4.44 11.91 -16.8 -11.91 -16.8 -3.15 4.44 0 -7.75c0,-3.46 0.51,-6.8 1.45,-9.97l1.7 2.4 11.91 -16.79 -2.05 -2.89c1.63,-1.32 3.37,-2.51 5.22,-3.53l0.69 0.98 1.48 -2.08c3.05,-1.42 6.33,-2.41 9.77,-2.91l-7.4 10.42 11.92 16.79 11.91 -16.79 -7.65 -10.78zm295.29 939.25l-11.9 -16.8 11.9 -16.82 0 0.03 11.91 16.8 -11.91 16.79zm0 -44.48l-11.9 -16.81 11.9 -16.81 0 0.03 11.91 16.79 -11.91 16.8zm0 -44.48l-11.9 -16.79 11.9 -16.79 0 0.03 11.91 16.78 -11.91 16.78zm0 -44.48l-11.9 -16.81 11.9 -16.77 0 0.03 11.91 16.76 -11.91 16.8zm0 -44.47l-11.9 -16.79 11.9 -16.8 0 0.03 11.91 16.79 -11.91 16.78zm0 -44.48l-11.9 -16.79 11.9 -16.79 0 0.03 11.91 16.78 -11.91 16.78zm0 -44.48l-11.9 -16.79 11.9 -16.81 0 0.03 11.91 16.8 -11.91 16.78zm0 -44.47l-11.9 -16.82 11.9 -16.77 0 0.03 11.91 16.76 -11.91 16.81zm0 -44.48l-11.9 -16.79 11.9 -16.79 0 0.03 11.91 16.78 -11.91 16.78zm0 -44.46l-11.9 -16.83 11.9 -16.78 0 0.03 11.91 16.77 -11.91 16.81zm0 -44.49l-11.9 -16.8 11.9 -16.79 0 0.03 11.91 16.78 -11.91 16.79zm0 -44.45l-11.9 -16.79 11.9 -16.81 0 0.03 11.91 16.8 -11.91 16.78zm0 -44.48l-11.9 -16.8 11.9 -16.8 0 0.02 11.91 16.79 -11.91 16.79zm0 -44.47l-11.9 -16.8 11.9 -16.79 0 0.03 11.91 16.78 -11.91 16.79zm0 -44.48l-11.9 -16.79 11.9 -16.8 0 0.03 11.91 16.79 -11.91 16.78zm0 -44.46l-11.9 -16.81 11.9 -16.79 0 0.03 11.91 16.78 -11.91 16.79zm0 -44.49l-11.9 -16.79 11.9 -16.79 0 0.02 11.91 16.78 -11.91 16.78zm0 -44.44l-11.9 -16.8 11.9 -16.81 0 0.02 11.91 16.8 -11.91 16.79zm0 -44.48l-11.9 -16.79 11.9 -16.8 0 0.03 11.91 16.79 -11.91 16.78zm0 -44.48l-11.9 -16.79 11.9 -16.79 0 0.03 11.91 16.78 -11.91 16.78zm0 -44.46l-11.9 -16.81 11.9 -16.79 0 0.01 11.91 16.79 -11.91 16.79zm287.65 850.4l11.91 -16.82 11.92 16.82 -11.92 16.77 -11.91 -16.77zm-3.85 5.42l11.9 16.82 -11.9 16.8 -11.9 -16.8 11.9 -16.82zm-27.68 -5.42l11.91 -16.82 11.91 16.82 -11.91 16.77 -11.91 -16.77zm-3.86 5.42l11.91 16.82 -11.91 16.8 -11.93 -16.8 11.93 -16.82zm-27.68 -5.42l11.9 -16.82 11.91 16.82 -11.91 16.77 -11.9 -16.77zm-3.85 5.42l11.9 16.82 -11.9 16.8 -11.92 -16.8 11.92 -16.82zm-27.69 -5.42l11.9 -16.82 11.92 16.82 -11.92 16.77 -11.9 -16.77zm-3.85 5.42l11.9 16.82 -11.9 16.8 -11.91 -16.8 11.91 -16.82zm-27.68 -5.42l11.9 -16.82 11.93 16.82 -11.93 16.77 -11.9 -16.77zm-3.86 5.42l11.91 16.82 -11.91 16.8 -11.93 -16.8 11.93 -16.82zm-27.68 -5.42l11.9 -16.82 11.93 16.82 -11.93 16.77 -11.9 -16.77zm-3.85 5.42l11.9 16.82 -11.9 16.8 -11.93 -16.8 11.93 -16.82zm-27.69 -5.42l11.9 -16.82 11.93 16.82 -11.93 16.77 -11.9 -16.77zm-3.85 5.42l11.91 16.82 -11.91 16.8 -11.93 -16.8 11.93 -16.82zm-27.68 -5.42l11.9 -16.82 11.91 16.82 -11.91 16.77 -11.9 -16.77zm-3.86 5.42l11.9 16.82 -11.9 16.8 -11.93 -16.8 11.93 -16.82zm-27.68 -5.42l11.9 -16.82 11.93 16.82 -11.93 16.77 -11.9 -16.77zm-3.85 5.42l11.9 16.82 -11.9 16.8 -11.93 -16.8 11.93 -16.82zm-27.69 -5.42l11.9 -16.82 11.91 16.82 -11.91 16.77 -11.9 -16.77zm23.82 -844.96l-11.91 16.8 -11.9 -16.8 11.9 -16.8 11.91 16.8zm3.87 -5.44l-11.93 -16.81 11.93 -16.79 11.9 16.79 -11.9 16.81zm27.68 5.44l-11.93 16.8 -11.9 -16.8 11.9 -16.8 11.93 16.8zm3.85 -5.44l-11.93 -16.81 11.93 -16.79 11.9 16.79 -11.9 16.81zm27.67 5.44l-11.91 16.8 -11.9 -16.8 11.9 -16.8 11.91 16.8zm3.86 -5.44l-11.93 -16.81 11.93 -16.79 11.91 16.79 -11.91 16.81zm27.68 5.44l-11.93 16.8 -11.9 -16.8 11.9 -16.8 11.93 16.8zm3.86 -5.44l-11.93 -16.81 11.93 -16.79 11.9 16.79 -11.9 16.81zm27.67 5.44l-11.93 16.8 -11.9 -16.8 11.9 -16.8 11.93 16.8zm3.85 -5.44l-11.93 -16.81 11.93 -16.79 11.91 16.79 -11.91 16.81zm27.69 5.44l-11.93 16.8 -11.9 -16.8 11.9 -16.8 11.93 16.8zm3.85 -5.44l-11.91 -16.81 11.91 -16.8 11.9 16.8 -11.9 16.81zm27.67 5.44l-11.92 16.8 -11.9 -16.8 11.9 -16.8 11.92 16.8zm3.87 -5.44l-11.92 -16.81 11.92 -16.8 11.9 16.8 -11.9 16.81zm27.66 5.44l-11.91 16.8 -11.9 -16.8 11.9 -16.8 11.91 16.8zm3.86 -5.44l-11.93 -16.81 11.93 -16.8 11.91 16.8 -11.91 16.81zm27.68 5.44l-11.91 16.8 -11.91 -16.8 11.91 -16.8 11.91 16.8zm3.86 -5.44l-11.9 -16.81 11.9 -16.8 11.9 16.8 -11.9 16.81zm27.68 5.44l-11.92 16.8 -11.91 -16.8 11.91 -16.8 11.92 16.8zm-23.83 800.48l11.91 -16.81 11.92 16.81 -11.92 16.78 -11.91 -16.78zm-3.85 5.41l11.9 16.81 -11.9 16.81 -11.9 -16.81 11.9 -16.81zm-27.68 -5.41l11.91 -16.81 11.91 16.81 -11.91 16.78 -11.91 -16.78zm-3.86 5.41l11.91 16.81 -11.91 16.81 -11.93 -16.81 11.93 -16.81zm-27.68 -5.41l11.9 -16.81 11.91 16.81 -11.91 16.78 -11.9 -16.78zm-3.85 5.41l11.9 16.81 -11.9 16.81 -11.92 -16.81 11.92 -16.81zm-27.69 -5.41l11.9 -16.81 11.92 16.81 -11.92 16.78 -11.9 -16.78zm-3.85 5.41l11.9 16.81 -11.9 16.81 -11.91 -16.81 11.91 -16.81zm-27.68 -5.41l11.9 -16.81 11.93 16.81 -11.93 16.78 -11.9 -16.78zm-3.86 5.41l11.91 16.81 -11.91 16.81 -11.93 -16.81 11.93 -16.81zm-27.68 -5.41l11.9 -16.81 11.93 16.81 -11.93 16.78 -11.9 -16.78zm-3.85 5.41l11.9 16.81 -11.9 16.81 -11.93 -16.81 11.93 -16.81zm-27.69 -5.41l11.9 -16.81 11.93 16.81 -11.93 16.78 -11.9 -16.78zm-3.85 5.41l11.91 16.81 -11.91 16.81 -11.93 -16.81 11.93 -16.81zm-27.68 -5.41l11.9 -16.81 11.91 16.81 -11.91 16.78 -11.9 -16.78zm-3.86 5.41l11.9 16.81 -11.9 16.81 -11.93 -16.81 11.93 -16.81zm-27.68 -5.41l11.9 -16.81 11.93 16.81 -11.93 16.78 -11.9 -16.78zm-3.85 5.41l11.9 16.81 -11.9 16.81 -11.93 -16.81 11.93 -16.81zm-27.69 -5.41l11.9 -16.81 11.91 16.81 -11.91 16.78 -11.9 -16.78zm23.82 -756.01l-11.91 16.81 -11.9 -16.81 11.9 -16.8 11.91 16.8zm3.87 -5.44l-11.93 -16.79 11.93 -16.79 11.9 16.79 -11.9 16.79zm27.68 5.44l-11.93 16.81 -11.9 -16.81 11.9 -16.8 11.93 16.8zm3.85 -5.44l-11.93 -16.79 11.93 -16.79 11.9 16.79 -11.9 16.79zm27.67 5.44l-11.91 16.81 -11.9 -16.81 11.9 -16.8 11.91 16.8zm3.86 -5.44l-11.93 -16.79 11.93 -16.79 11.91 16.79 -11.91 16.79zm27.68 5.44l-11.93 16.81 -11.9 -16.81 11.9 -16.8 11.93 16.8zm3.86 -5.44l-11.93 -16.79 11.93 -16.79 11.9 16.79 -11.9 16.79zm27.67 5.44l-11.93 16.81 -11.9 -16.81 11.9 -16.8 11.93 16.8zm3.85 -5.44l-11.93 -16.79 11.93 -16.8 11.91 16.8 -11.91 16.79zm27.69 5.44l-11.93 16.81 -11.9 -16.81 11.9 -16.8 11.93 16.8zm3.85 -5.44l-11.91 -16.79 11.91 -16.8 11.9 16.8 -11.9 16.79zm27.67 5.44l-11.92 16.81 -11.9 -16.81 11.9 -16.8 11.92 16.8zm3.87 -5.44l-11.92 -16.79 11.92 -16.8 11.9 16.8 -11.9 16.79zm27.66 5.44l-11.91 16.81 -11.9 -16.81 11.9 -16.8 11.91 16.8zm3.86 -5.44l-11.93 -16.79 11.93 -16.8 11.91 16.8 -11.91 16.79zm27.68 5.44l-11.91 16.81 -11.91 -16.81 11.91 -16.8 11.91 16.8zm3.86 -5.44l-11.9 -16.79 11.9 -16.8 11.9 16.8 -11.9 16.79zm27.68 5.44l-11.92 16.81 -11.91 -16.81 11.91 -16.8 11.92 16.8zm-23.83 711.52l11.91 -16.78 11.92 16.78 -11.92 16.81 -11.91 -16.81zm-3.85 5.46l11.9 16.79 -11.9 16.79 -11.9 -16.79 11.9 -16.79zm-27.68 -5.46l11.91 -16.78 11.91 16.78 -11.91 16.81 -11.91 -16.81zm-3.86 5.46l11.91 16.79 -11.91 16.79 -11.93 -16.79 11.93 -16.79zm-27.68 -5.46l11.9 -16.78 11.91 16.78 -11.91 16.81 -11.9 -16.81zm-3.85 5.46l11.9 16.79 -11.9 16.79 -11.92 -16.79 11.92 -16.79zm-27.69 -5.46l11.9 -16.78 11.92 16.78 -11.92 16.81 -11.9 -16.81zm-3.85 5.46l11.9 16.79 -11.9 16.79 -11.91 -16.79 11.91 -16.79zm-27.68 -5.46l11.9 -16.78 11.93 16.78 -11.93 16.81 -11.9 -16.81zm-3.86 5.46l11.91 16.79 -11.91 16.79 -11.93 -16.79 11.93 -16.79zm-27.68 -5.46l11.9 -16.78 11.93 16.78 -11.93 16.81 -11.9 -16.81zm-3.85 5.46l11.9 16.79 -11.9 16.79 -11.93 -16.79 11.93 -16.79zm-27.69 -5.46l11.9 -16.78 11.93 16.78 -11.93 16.81 -11.9 -16.81zm-3.85 5.46l11.91 16.79 -11.91 16.79 -11.93 -16.79 11.93 -16.79zm-27.68 -5.46l11.9 -16.78 11.91 16.78 -11.91 16.81 -11.9 -16.81zm-3.86 5.46l11.9 16.79 -11.9 16.79 -11.93 -16.79 11.93 -16.79zm-27.68 -5.46l11.9 -16.78 11.93 16.78 -11.93 16.81 -11.9 -16.81zm-3.85 5.46l11.9 16.79 -11.9 16.79 -11.93 -16.79 11.93 -16.79zm-27.69 -5.46l11.9 -16.78 11.91 16.78 -11.91 16.81 -11.9 -16.81zm23.82 -667.06l-11.91 16.79 -11.9 -16.79 11.9 -16.79 11.91 16.79zm3.87 -5.43l-11.93 -16.79 11.93 -16.8 11.9 16.8 -11.9 16.79zm27.68 5.43l-11.93 16.79 -11.9 -16.79 11.9 -16.79 11.93 16.79zm3.85 -5.43l-11.93 -16.79 11.93 -16.8 11.9 16.8 -11.9 16.79zm27.67 5.43l-11.91 16.79 -11.9 -16.79 11.9 -16.79 11.91 16.79zm3.86 -5.43l-11.93 -16.79 11.93 -16.8 11.91 16.8 -11.91 16.79zm27.68 5.43l-11.93 16.79 -11.9 -16.79 11.9 -16.79 11.93 16.79zm3.86 -5.43l-11.93 -16.79 11.93 -16.8 11.9 16.8 -11.9 16.79zm27.67 5.43l-11.93 16.79 -11.9 -16.79 11.9 -16.79 11.93 16.79zm3.85 -5.43l-11.93 -16.79 11.93 -16.8 11.91 16.8 -11.91 16.79zm27.69 5.43l-11.93 16.79 -11.9 -16.79 11.9 -16.79 11.93 16.79zm3.85 -5.43l-11.91 -16.79 11.91 -16.8 11.9 16.8 -11.9 16.79zm27.67 5.43l-11.92 16.79 -11.9 -16.79 11.9 -16.79 11.92 16.79zm3.87 -5.43l-11.92 -16.79 11.92 -16.8 11.9 16.8 -11.9 16.79zm27.66 5.43l-11.91 16.79 -11.9 -16.79 11.9 -16.79 11.91 16.79zm3.86 -5.43l-11.93 -16.79 11.93 -16.8 11.91 16.8 -11.91 16.79zm27.68 5.43l-11.91 16.79 -11.91 -16.79 11.91 -16.79 11.91 16.79zm3.86 -5.43l-11.9 -16.79 11.9 -16.8 11.9 16.8 -11.9 16.79zm27.68 5.43l-11.92 16.79 -11.91 -16.79 11.91 -16.79 11.92 16.79zm-23.83 622.58l11.91 -16.77 11.92 16.77 -11.92 16.82 -11.91 -16.82zm-3.85 5.46l11.9 16.77 -11.9 16.81 -11.9 -16.81 11.9 -16.77zm-27.68 -5.46l11.91 -16.77 11.91 16.77 -11.91 16.82 -11.91 -16.82zm-3.86 5.46l11.91 16.77 -11.91 16.81 -11.93 -16.81 11.93 -16.77zm-27.68 -5.46l11.9 -16.77 11.91 16.77 -11.91 16.82 -11.9 -16.82zm-3.85 5.46l11.9 16.77 -11.9 16.81 -11.92 -16.81 11.92 -16.77zm-27.69 -5.46l11.9 -16.77 11.92 16.77 -11.92 16.82 -11.9 -16.82zm-3.85 5.46l11.9 16.77 -11.9 16.81 -11.91 -16.81 11.91 -16.77zm-27.68 -5.46l11.9 -16.77 11.93 16.77 -11.93 16.82 -11.9 -16.82zm-3.86 5.46l11.91 16.77 -11.91 16.81 -11.93 -16.81 11.93 -16.77zm-27.68 -5.46l11.9 -16.77 11.93 16.77 -11.93 16.82 -11.9 -16.82zm-3.85 5.46l11.9 16.77 -11.9 16.81 -11.93 -16.81 11.93 -16.77zm-27.69 -5.46l11.9 -16.77 11.93 16.77 -11.93 16.82 -11.9 -16.82zm-3.85 5.46l11.91 16.77 -11.91 16.81 -11.93 -16.81 11.93 -16.77zm-27.68 -5.46l11.9 -16.77 11.91 16.77 -11.91 16.82 -11.9 -16.82zm-3.86 5.46l11.9 16.77 -11.9 16.81 -11.93 -16.81 11.93 -16.77zm-27.68 -5.46l11.9 -16.77 11.93 16.77 -11.93 16.82 -11.9 -16.82zm-3.85 5.46l11.9 16.77 -11.9 16.81 -11.93 -16.81 11.93 -16.77zm-3.87 -5.46l-11.91 16.82 -11.9 -16.82 11.9 -16.77 11.91 16.77zm0 -44.45l-11.91 16.79 -11.9 -16.79 11.9 -16.79 11.91 16.79zm0 -44.49l-11.91 16.82 -11.9 -16.82 11.9 -16.78 11.91 16.78zm0 -44.48l-11.91 16.82 -11.9 -16.82 11.9 -16.79 11.91 16.79zm0 -44.48l-11.91 16.82 -11.9 -16.82 11.9 -16.77 11.91 16.77zm0 -44.46l-11.91 16.8 -11.9 -16.8 11.9 -16.82 11.91 16.82zm0 -44.46l-11.91 16.78 -11.9 -16.78 11.9 -16.82 11.91 16.82zm0 -44.49l-11.91 16.79 -11.9 -16.79 11.9 -16.8 11.91 16.8zm0 -44.47l-11.91 16.82 -11.9 -16.82 11.9 -16.79 11.91 16.79zm0 -44.48l-11.91 16.81 -11.9 -16.81 11.9 -16.8 11.91 16.8zm0 -44.45l-11.91 16.79 -11.9 -16.79 11.9 -16.8 11.91 16.8zm0 -44.49l-11.91 16.81 -11.9 -16.81 11.9 -16.77 11.91 16.77zm0 -44.45l-11.91 16.79 -11.9 -16.79 11.9 -16.8 11.91 16.8zm0 -44.46l-11.91 16.79 -11.9 -16.79 11.9 -16.81 11.91 16.81zm3.87 -5.44l-11.93 -16.8 11.93 -16.81 11.9 16.81 -11.9 16.8zm27.68 5.44l-11.93 16.77 -11.9 -16.77 11.9 -16.81 11.93 16.81zm3.85 -5.44l-11.93 -16.8 11.93 -16.81 11.9 16.81 -11.9 16.8zm27.67 5.44l-11.91 16.77 -11.9 -16.77 11.9 -16.81 11.91 16.81zm3.86 -5.44l-11.93 -16.8 11.93 -16.81 11.91 16.81 -11.91 16.8zm27.68 5.44l-11.93 16.77 -11.9 -16.77 11.9 -16.81 11.93 16.81zm3.86 -5.44l-11.93 -16.8 11.93 -16.81 11.9 16.81 -11.9 16.8zm27.67 5.44l-11.93 16.77 -11.9 -16.77 11.9 -16.81 11.93 16.81zm3.85 -5.44l-11.93 -16.8 11.93 -16.81 11.91 16.81 -11.91 16.8zm27.69 5.44l-11.93 16.77 -11.9 -16.77 11.9 -16.81 11.93 16.81zm3.85 -5.44l-11.91 -16.8 11.91 -16.81 11.9 16.81 -11.9 16.8zm27.67 5.44l-11.92 16.77 -11.9 -16.77 11.9 -16.81 11.92 16.81zm3.87 -5.44l-11.92 -16.8 11.92 -16.81 11.9 16.81 -11.9 16.8zm27.66 5.44l-11.91 16.77 -11.9 -16.77 11.9 -16.81 11.91 16.81zm3.86 -5.44l-11.93 -16.8 11.93 -16.81 11.91 16.81 -11.91 16.8zm27.68 5.44l-11.91 16.77 -11.91 -16.77 11.91 -16.81 11.91 16.81zm3.86 -5.44l-11.9 -16.8 11.9 -16.81 11.9 16.81 -11.9 16.8zm27.68 5.44l-11.92 16.77 -11.91 -16.77 11.91 -16.81 11.92 16.81zm-23.83 533.64l11.91 -16.79 11.92 16.79 -11.92 16.79 -11.91 -16.79zm-3.85 5.44l11.9 16.8 -11.9 16.79 -11.9 -16.79 11.9 -16.8zm-27.68 -5.44l11.91 -16.79 11.91 16.79 -11.91 16.79 -11.91 -16.79zm-3.86 5.44l11.91 16.8 -11.91 16.79 -11.93 -16.79 11.93 -16.8zm-27.68 -5.44l11.9 -16.79 11.91 16.79 -11.91 16.79 -11.9 -16.79zm-3.85 5.44l11.9 16.8 -11.9 16.79 -11.92 -16.79 11.92 -16.8zm-27.69 -5.44l11.9 -16.79 11.92 16.79 -11.92 16.79 -11.9 -16.79zm-3.85 5.44l11.9 16.8 -11.9 16.79 -11.91 -16.79 11.91 -16.8zm-27.68 -5.44l11.9 -16.79 11.93 16.79 -11.93 16.79 -11.9 -16.79zm-3.86 5.44l11.91 16.8 -11.91 16.79 -11.93 -16.79 11.93 -16.8zm-27.68 -5.44l11.9 -16.79 11.93 16.79 -11.93 16.79 -11.9 -16.79zm-3.85 5.44l11.9 16.8 -11.9 16.79 -11.93 -16.79 11.93 -16.8zm-27.69 -5.44l11.9 -16.79 11.93 16.79 -11.93 16.79 -11.9 -16.79zm-3.85 5.44l11.91 16.8 -11.91 16.79 -11.93 -16.79 11.93 -16.8zm-27.68 -5.44l11.9 -16.79 11.91 16.79 -11.91 16.79 -11.9 -16.79zm-3.86 5.44l11.9 16.8 -11.9 16.79 -11.93 -16.79 11.93 -16.8zm-27.68 -5.44l11.9 -16.79 11.93 16.79 -11.93 16.79 -11.9 -16.79zm8.05 22.24l-11.9 16.79 -11.93 -16.79 11.93 -16.8 11.9 16.8zm0 -44.48l-11.9 16.79 -11.93 -16.79 11.93 -16.79 11.9 16.79zm0 -44.48l-11.9 16.79 -11.93 -16.79 11.93 -16.81 11.9 16.81zm0 -44.5l-11.9 16.82 -11.93 -16.82 11.93 -16.77 11.9 16.77zm0 -44.45l-11.9 16.79 -11.93 -16.79 11.93 -16.79 11.9 16.79zm0 -44.49l-11.9 16.83 -11.93 -16.83 11.93 -16.78 11.9 16.78zm0 -44.46l-11.9 16.8 -11.93 -16.8 11.93 -16.79 11.9 16.79zm0 -44.45l-11.9 16.79 -11.93 -16.79 11.93 -16.81 11.9 16.81zm0 -44.49l-11.9 16.8 -11.93 -16.8 11.93 -16.8 11.9 16.8zm0 -44.47l-11.9 16.8 -11.93 -16.8 11.93 -16.79 11.9 16.79zm0 -44.47l-11.9 16.79 -11.93 -16.79 11.93 -16.8 11.9 16.8zm0 -44.48l-11.9 16.81 -11.93 -16.81 11.93 -16.79 11.9 16.79zm-11.9 -27.68l-11.93 -16.79 11.93 -16.79 11.9 16.79 -11.9 16.79zm27.68 5.45l-11.93 16.79 -11.9 -16.79 11.9 -16.8 11.93 16.8zm3.85 -5.45l-11.93 -16.79 11.93 -16.79 11.9 16.79 -11.9 16.79zm27.67 5.45l-11.91 16.79 -11.9 -16.79 11.9 -16.8 11.91 16.8zm3.86 -5.45l-11.93 -16.79 11.93 -16.79 11.91 16.79 -11.91 16.79zm27.68 5.45l-11.93 16.79 -11.9 -16.79 11.9 -16.8 11.93 16.8zm3.86 -5.45l-11.93 -16.79 11.93 -16.79 11.9 16.79 -11.9 16.79zm27.67 5.45l-11.93 16.79 -11.9 -16.79 11.9 -16.8 11.93 16.8zm3.85 -5.45l-11.93 -16.79 11.93 -16.79 11.91 16.79 -11.91 16.79zm27.69 5.45l-11.93 16.79 -11.9 -16.79 11.9 -16.8 11.93 16.8zm3.85 -5.45l-11.91 -16.79 11.91 -16.79 11.9 16.79 -11.9 16.79zm27.67 5.45l-11.92 16.79 -11.9 -16.79 11.9 -16.8 11.92 16.8zm3.87 -5.45l-11.92 -16.79 11.92 -16.79 11.9 16.79 -11.9 16.79zm27.66 5.45l-11.91 16.79 -11.9 -16.79 11.9 -16.8 11.91 16.8zm3.86 -5.45l-11.93 -16.79 11.93 -16.79 11.91 16.79 -11.91 16.79zm27.68 5.45l-11.91 16.79 -11.91 -16.79 11.91 -16.8 11.91 16.8zm3.86 -5.45l-11.9 -16.79 11.9 -16.79 11.9 16.79 -11.9 16.79zm27.68 5.45l-11.92 16.79 -11.91 -16.79 11.91 -16.8 11.92 16.8zm-23.83 444.69l11.91 -16.78 11.92 16.78 -11.92 16.82 -11.91 -16.82zm-3.85 5.46l11.9 16.79 -11.9 16.79 -11.9 -16.79 11.9 -16.79zm-27.68 -5.46l11.91 -16.78 11.91 16.78 -11.91 16.82 -11.91 -16.82zm-3.86 5.46l11.91 16.79 -11.91 16.79 -11.93 -16.79 11.93 -16.79zm-27.68 -5.46l11.9 -16.78 11.91 16.78 -11.91 16.82 -11.9 -16.82zm-3.85 5.46l11.9 16.79 -11.9 16.79 -11.92 -16.79 11.92 -16.79zm-27.69 -5.46l11.9 -16.78 11.92 16.78 -11.92 16.82 -11.9 -16.82zm-3.85 5.46l11.9 16.79 -11.9 16.79 -11.91 -16.79 11.91 -16.79zm-27.68 -5.46l11.9 -16.78 11.93 16.78 -11.93 16.82 -11.9 -16.82zm-3.86 5.46l11.91 16.79 -11.91 16.79 -11.93 -16.79 11.93 -16.79zm-27.68 -5.46l11.9 -16.78 11.93 16.78 -11.93 16.82 -11.9 -16.82zm-3.85 5.46l11.9 16.79 -11.9 16.79 -11.93 -16.79 11.93 -16.79zm-27.69 -5.46l11.9 -16.78 11.93 16.78 -11.93 16.82 -11.9 -16.82zm-3.85 5.46l11.91 16.79 -11.91 16.79 -11.93 -16.79 11.93 -16.79zm-27.68 -5.46l11.9 -16.78 11.91 16.78 -11.91 16.82 -11.9 -16.82zm-3.86 5.46l11.9 16.79 -11.9 16.79 -11.93 -16.79 11.93 -16.79zm-3.85 -5.46l-11.93 16.82 -11.9 -16.82 11.9 -16.78 11.93 16.78zm0 -44.48l-11.93 16.82 -11.9 -16.82 11.9 -16.79 11.93 16.79zm0 -44.48l-11.93 16.82 -11.9 -16.82 11.9 -16.77 11.93 16.77zm0 -44.46l-11.93 16.8 -11.9 -16.8 11.9 -16.82 11.93 16.82zm0 -44.46l-11.93 16.78 -11.9 -16.78 11.9 -16.82 11.93 16.82zm0 -44.49l-11.93 16.79 -11.9 -16.79 11.9 -16.8 11.93 16.8zm0 -44.47l-11.93 16.82 -11.9 -16.82 11.9 -16.79 11.93 16.79zm0 -44.48l-11.93 16.81 -11.9 -16.81 11.9 -16.8 11.93 16.8zm0 -44.45l-11.93 16.79 -11.9 -16.79 11.9 -16.8 11.93 16.8zm0 -44.49l-11.93 16.81 -11.9 -16.81 11.9 -16.77 11.93 16.77zm3.85 -5.42l-11.93 -16.81 11.93 -16.79 11.9 16.79 -11.9 16.81zm27.67 5.42l-11.91 16.81 -11.9 -16.81 11.9 -16.77 11.91 16.77zm3.86 -5.42l-11.93 -16.81 11.93 -16.79 11.91 16.79 -11.91 16.81zm27.68 5.42l-11.93 16.81 -11.9 -16.81 11.9 -16.77 11.93 16.77zm3.86 -5.42l-11.93 -16.81 11.93 -16.79 11.9 16.79 -11.9 16.81zm27.67 5.42l-11.93 16.81 -11.9 -16.81 11.9 -16.77 11.93 16.77zm3.85 -5.42l-11.93 -16.81 11.93 -16.79 11.91 16.79 -11.91 16.81zm27.69 5.42l-11.93 16.81 -11.9 -16.81 11.9 -16.77 11.93 16.77zm3.85 -5.42l-11.91 -16.81 11.91 -16.79 11.9 16.79 -11.9 16.81zm27.67 5.42l-11.92 16.81 -11.9 -16.81 11.9 -16.77 11.92 16.77zm3.87 -5.42l-11.92 -16.81 11.92 -16.79 11.9 16.79 -11.9 16.81zm27.66 5.42l-11.91 16.81 -11.9 -16.81 11.9 -16.77 11.91 16.77zm3.86 -5.42l-11.93 -16.81 11.93 -16.79 11.91 16.79 -11.91 16.81zm27.68 5.42l-11.91 16.81 -11.91 -16.81 11.91 -16.77 11.91 16.77zm3.86 -5.42l-11.9 -16.81 11.9 -16.79 11.9 16.79 -11.9 16.81zm27.68 5.42l-11.92 16.81 -11.91 -16.81 11.91 -16.77 11.92 16.77zm-23.83 355.76l11.91 -16.79 11.92 16.79 -11.92 16.82 -11.91 -16.82zm-3.85 5.44l11.9 16.81 -11.9 16.79 -11.9 -16.79 11.9 -16.81zm-27.68 -5.44l11.91 -16.79 11.91 16.79 -11.91 16.82 -11.91 -16.82zm-3.86 5.44l11.91 16.81 -11.91 16.79 -11.93 -16.79 11.93 -16.81zm-27.68 -5.44l11.9 -16.79 11.91 16.79 -11.91 16.82 -11.9 -16.82zm-3.85 5.44l11.9 16.81 -11.9 16.79 -11.92 -16.79 11.92 -16.81zm-27.69 -5.44l11.9 -16.79 11.92 16.79 -11.92 16.82 -11.9 -16.82zm-3.85 5.44l11.9 16.81 -11.9 16.79 -11.91 -16.79 11.91 -16.81zm-27.68 -5.44l11.9 -16.79 11.93 16.79 -11.93 16.82 -11.9 -16.82zm-3.86 5.44l11.91 16.81 -11.91 16.79 -11.93 -16.79 11.93 -16.81zm-27.68 -5.44l11.9 -16.79 11.93 16.79 -11.93 16.82 -11.9 -16.82zm-3.85 5.44l11.9 16.81 -11.9 16.79 -11.93 -16.79 11.93 -16.81zm-27.69 -5.44l11.9 -16.79 11.93 16.79 -11.93 16.82 -11.9 -16.82zm-3.85 5.44l11.91 16.81 -11.91 16.79 -11.93 -16.79 11.93 -16.81zm-27.68 -5.44l11.9 -16.79 11.91 16.79 -11.91 16.82 -11.9 -16.82zm8.04 22.25l-11.9 16.79 -11.93 -16.79 11.93 -16.81 11.9 16.81zm0 -44.5l-11.9 16.82 -11.93 -16.82 11.93 -16.77 11.9 16.77zm0 -44.45l-11.9 16.79 -11.93 -16.79 11.93 -16.79 11.9 16.79zm0 -44.49l-11.9 16.83 -11.93 -16.83 11.93 -16.78 11.9 16.78zm0 -44.46l-11.9 16.8 -11.93 -16.8 11.93 -16.79 11.9 16.79zm0 -44.45l-11.9 16.79 -11.93 -16.79 11.93 -16.81 11.9 16.81zm0 -44.49l-11.9 16.8 -11.93 -16.8 11.93 -16.8 11.9 16.8zm0 -44.47l-11.9 16.8 -11.93 -16.8 11.93 -16.79 11.9 16.79zm-11.9 -27.68l-11.93 -16.79 11.93 -16.8 11.9 16.8 -11.9 16.79zm27.67 5.44l-11.91 16.79 -11.9 -16.79 11.9 -16.8 11.91 16.8zm3.86 -5.44l-11.93 -16.79 11.93 -16.8 11.91 16.8 -11.91 16.79zm27.68 5.44l-11.93 16.79 -11.9 -16.79 11.9 -16.8 11.93 16.8zm3.86 -5.44l-11.93 -16.79 11.93 -16.8 11.9 16.8 -11.9 16.79zm27.67 5.44l-11.93 16.79 -11.9 -16.79 11.9 -16.8 11.93 16.8zm3.85 -5.44l-11.93 -16.79 11.93 -16.8 11.91 16.8 -11.91 16.79zm27.69 5.44l-11.93 16.79 -11.9 -16.79 11.9 -16.8 11.93 16.8zm3.85 -5.44l-11.91 -16.79 11.91 -16.8 11.9 16.8 -11.9 16.79zm27.67 5.44l-11.92 16.79 -11.9 -16.79 11.9 -16.8 11.92 16.8zm3.87 -5.44l-11.92 -16.79 11.92 -16.8 11.9 16.8 -11.9 16.79zm27.66 5.44l-11.91 16.79 -11.9 -16.79 11.9 -16.8 11.91 16.8zm3.86 -5.44l-11.93 -16.79 11.93 -16.8 11.91 16.8 -11.91 16.79zm27.68 5.44l-11.91 16.79 -11.91 -16.79 11.91 -16.8 11.91 16.8zm3.86 -5.44l-11.9 -16.79 11.9 -16.8 11.9 16.8 -11.9 16.79zm27.68 5.44l-11.92 16.79 -11.91 -16.79 11.91 -16.8 11.92 16.8zm-23.83 266.8l11.91 -16.77 11.92 16.77 -11.92 16.82 -11.91 -16.82zm-3.85 5.46l11.9 16.77 -11.9 16.82 -11.9 -16.82 11.9 -16.77zm-27.68 -5.46l11.91 -16.77 11.91 16.77 -11.91 16.82 -11.91 -16.82zm-3.86 5.46l11.91 16.77 -11.91 16.82 -11.93 -16.82 11.93 -16.77zm-27.68 -5.46l11.9 -16.77 11.91 16.77 -11.91 16.82 -11.9 -16.82zm-3.85 5.46l11.9 16.77 -11.9 16.82 -11.92 -16.82 11.92 -16.77zm-27.69 -5.46l11.9 -16.77 11.92 16.77 -11.92 16.82 -11.9 -16.82zm-3.85 5.46l11.9 16.77 -11.9 16.82 -11.91 -16.82 11.91 -16.77zm-27.68 -5.46l11.9 -16.77 11.93 16.77 -11.93 16.82 -11.9 -16.82zm-3.86 5.46l11.91 16.77 -11.91 16.82 -11.93 -16.82 11.93 -16.77zm-27.68 -5.46l11.9 -16.77 11.93 16.77 -11.93 16.82 -11.9 -16.82zm-3.85 5.46l11.9 16.77 -11.9 16.82 -11.93 -16.82 11.93 -16.77zm-27.69 -5.46l11.9 -16.77 11.93 16.77 -11.93 16.82 -11.9 -16.82zm-3.85 5.46l11.91 16.77 -11.91 16.82 -11.93 -16.82 11.93 -16.77zm-3.86 -5.46l-11.91 16.82 -11.9 -16.82 11.9 -16.77 11.91 16.77zm0 -44.46l-11.91 16.8 -11.9 -16.8 11.9 -16.82 11.91 16.82zm0 -44.46l-11.91 16.78 -11.9 -16.78 11.9 -16.82 11.91 16.82zm0 -44.49l-11.91 16.79 -11.9 -16.79 11.9 -16.8 11.91 16.8zm0 -44.47l-11.91 16.82 -11.9 -16.82 11.9 -16.79 11.91 16.79zm0 -44.48l-11.91 16.81 -11.9 -16.81 11.9 -16.8 11.91 16.8zm3.86 -5.42l-11.93 -16.8 11.93 -16.79 11.91 16.79 -11.91 16.8zm27.68 5.42l-11.93 16.81 -11.9 -16.81 11.9 -16.8 11.93 16.8zm3.86 -5.42l-11.93 -16.8 11.93 -16.79 11.9 16.79 -11.9 16.8zm27.67 5.42l-11.93 16.81 -11.9 -16.81 11.9 -16.8 11.93 16.8zm3.85 -5.42l-11.93 -16.8 11.93 -16.79 11.91 16.79 -11.91 16.8zm27.69 5.42l-11.93 16.81 -11.9 -16.81 11.9 -16.8 11.93 16.8zm3.85 -5.42l-11.91 -16.8 11.91 -16.79 11.9 16.79 -11.9 16.8zm27.67 5.42l-11.92 16.81 -11.9 -16.81 11.9 -16.8 11.92 16.8zm3.87 -5.42l-11.92 -16.8 11.92 -16.79 11.9 16.79 -11.9 16.8zm27.66 5.42l-11.91 16.81 -11.9 -16.81 11.9 -16.8 11.91 16.8zm3.86 -5.42l-11.93 -16.8 11.93 -16.79 11.91 16.79 -11.91 16.8zm27.68 5.42l-11.91 16.81 -11.91 -16.81 11.91 -16.8 11.91 16.8zm3.86 -5.42l-11.9 -16.8 11.9 -16.79 11.9 16.79 -11.9 16.8zm27.68 5.42l-11.92 16.81 -11.91 -16.81 11.91 -16.8 11.92 16.8zm-23.83 177.89l11.91 -16.82 11.92 16.82 -11.92 16.8 -11.91 -16.8zm-3.85 5.45l11.9 16.79 -11.9 16.79 -11.9 -16.79 11.9 -16.79zm-27.68 -5.45l11.91 -16.82 11.91 16.82 -11.91 16.8 -11.91 -16.8zm-3.86 5.45l11.91 16.79 -11.91 16.79 -11.93 -16.79 11.93 -16.79zm-27.68 -5.45l11.9 -16.82 11.91 16.82 -11.91 16.8 -11.9 -16.8zm-3.85 5.45l11.9 16.79 -11.9 16.79 -11.92 -16.79 11.92 -16.79zm-27.69 -5.45l11.9 -16.82 11.92 16.82 -11.92 16.8 -11.9 -16.8zm-3.85 5.45l11.9 16.79 -11.9 16.79 -11.91 -16.79 11.91 -16.79zm-27.68 -5.45l11.9 -16.82 11.93 16.82 -11.93 16.8 -11.9 -16.8zm-3.86 5.45l11.91 16.79 -11.91 16.79 -11.93 -16.79 11.93 -16.79zm-27.68 -5.45l11.9 -16.82 11.93 16.82 -11.93 16.8 -11.9 -16.8zm-3.85 5.45l11.9 16.79 -11.9 16.79 -11.93 -16.79 11.93 -16.79zm-27.69 -5.45l11.9 -16.82 11.93 16.82 -11.93 16.8 -11.9 -16.8zm8.06 22.24l-11.91 16.79 -11.93 -16.79 11.93 -16.79 11.91 16.79zm0 -44.49l-11.91 16.83 -11.93 -16.83 11.93 -16.78 11.91 16.78zm0 -44.46l-11.91 16.8 -11.93 -16.8 11.93 -16.79 11.91 16.79zm0 -44.45l-11.91 16.79 -11.93 -16.79 11.93 -16.81 11.91 16.81zm-11.91 -27.68l-11.93 -16.8 11.93 -16.8 11.91 16.8 -11.91 16.8zm27.68 5.43l-11.93 16.82 -11.9 -16.82 11.9 -16.79 11.93 16.79zm3.86 -5.43l-11.93 -16.8 11.93 -16.8 11.9 16.8 -11.9 16.8zm27.67 5.43l-11.93 16.82 -11.9 -16.82 11.9 -16.79 11.93 16.79zm3.85 -5.43l-11.93 -16.8 11.93 -16.8 11.91 16.8 -11.91 16.8zm27.69 5.43l-11.93 16.82 -11.9 -16.82 11.9 -16.79 11.93 16.79zm3.85 -5.43l-11.91 -16.8 11.91 -16.8 11.9 16.8 -11.9 16.8zm27.67 5.43l-11.92 16.82 -11.9 -16.82 11.9 -16.79 11.92 16.79zm3.87 -5.43l-11.92 -16.8 11.92 -16.8 11.9 16.8 -11.9 16.8zm27.66 5.43l-11.91 16.82 -11.9 -16.82 11.9 -16.79 11.91 16.79zm3.86 -5.43l-11.93 -16.8 11.93 -16.8 11.91 16.8 -11.91 16.8zm27.68 5.43l-11.91 16.82 -11.91 -16.82 11.91 -16.79 11.91 16.79zm3.86 -5.43l-11.9 -16.8 11.9 -16.8 11.9 16.8 -11.9 16.8zm27.68 5.43l-11.92 16.82 -11.91 -16.82 11.91 -16.79 11.92 16.79zm-23.83 88.96l11.91 -16.82 11.92 16.82 -11.92 16.78 -11.91 -16.78zm-3.85 5.43l11.9 16.78 -11.9 16.83 -11.9 -16.83 11.9 -16.78zm-27.68 -5.43l11.91 -16.82 11.91 16.82 -11.91 16.78 -11.91 -16.78zm-3.86 5.43l11.91 16.78 -11.91 16.83 -11.93 -16.83 11.93 -16.78zm-27.68 -5.43l11.9 -16.82 11.91 16.82 -11.91 16.78 -11.9 -16.78zm-3.85 5.43l11.9 16.78 -11.9 16.83 -11.92 -16.83 11.92 -16.78zm-27.69 -5.43l11.9 -16.82 11.92 16.82 -11.92 16.78 -11.9 -16.78zm-3.85 5.43l11.9 16.78 -11.9 16.83 -11.91 -16.83 11.91 -16.78zm-27.68 -5.43l11.9 -16.82 11.93 16.82 -11.93 16.78 -11.9 -16.78zm-3.86 5.43l11.91 16.78 -11.91 16.83 -11.93 -16.83 11.93 -16.78zm-27.68 -5.43l11.9 -16.82 11.93 16.82 -11.93 16.78 -11.9 -16.78zm-3.85 5.43l11.9 16.78 -11.9 16.83 -11.93 -16.83 11.93 -16.78zm-3.86 -5.43l-11.93 16.78 -11.9 -16.78 11.9 -16.82 11.93 16.82zm0 -44.49l-11.93 16.79 -11.9 -16.79 11.9 -16.8 11.93 16.8zm3.86 -5.42l-11.93 -16.79 11.93 -16.81 11.9 16.81 -11.9 16.79zm11.9 27.65l-11.9 16.8 -11.93 -16.8 11.93 -16.79 11.9 16.79zm15.78 -22.23l-11.93 16.79 -11.9 -16.79 11.9 -16.8 11.93 16.8zm3.85 -5.42l-11.93 -16.79 11.93 -16.81 11.91 16.81 -11.91 16.79zm11.91 27.65l-11.91 16.8 -11.93 -16.8 11.93 -16.79 11.91 16.79zm15.78 -22.23l-11.93 16.79 -11.9 -16.79 11.9 -16.8 11.93 16.8zm3.85 -5.42l-11.91 -16.79 11.91 -16.81 11.9 16.81 -11.9 16.79zm11.9 27.65l-11.9 16.8 -11.91 -16.8 11.91 -16.79 11.9 16.79zm15.76 -22.23l-11.92 16.79 -11.9 -16.79 11.9 -16.8 11.92 16.8zm3.87 -5.42l-11.92 -16.79 11.92 -16.81 11.9 16.81 -11.9 16.79zm11.9 27.65l-11.9 16.8 -11.92 -16.8 11.92 -16.79 11.9 16.79zm15.76 -22.23l-11.91 16.79 -11.9 -16.79 11.9 -16.8 11.91 16.8zm3.86 -5.42l-11.93 -16.79 11.93 -16.81 11.91 16.81 -11.91 16.79zm11.91 27.65l-11.91 16.8 -11.93 -16.8 11.93 -16.79 11.91 16.79zm15.76 -22.23l-11.91 16.79 -11.91 -16.79 11.91 -16.8 11.91 16.8zm3.86 -5.42l-11.9 -16.79 11.9 -16.81 11.9 16.81 -11.9 16.79zm11.9 27.65l-11.9 16.8 -11.9 -16.8 11.9 -16.79 11.9 16.79zm15.77 -22.23l-11.92 16.79 -11.91 -16.79 11.91 -16.8 11.92 16.8zm-339.14 444.72l11.91 -16.82 11.9 16.82 -11.9 16.77 -11.91 -16.77zm-3.86 5.42l11.91 16.82 -11.91 16.8 -11.9 -16.8 11.9 -16.82zm-27.69 -5.42l11.93 -16.82 11.9 16.82 -11.9 16.77 -11.93 -16.77zm-3.85 5.42l11.91 16.82 -11.91 16.8 -11.9 -16.8 11.9 -16.82zm-27.68 -5.42l11.93 -16.82 11.9 16.82 -11.9 16.77 -11.93 -16.77zm-3.86 5.42l11.92 16.82 -11.92 16.8 -11.9 -16.8 11.9 -16.82zm-27.68 -5.42l11.93 -16.82 11.91 16.82 -11.91 16.77 -11.93 -16.77zm-3.85 5.42l11.91 16.82 -11.91 16.8 -11.9 -16.8 11.9 -16.82zm-27.69 -5.42l11.93 -16.82 11.9 16.82 -11.9 16.77 -11.93 -16.77zm-3.85 5.42l11.93 16.82 -11.93 16.8 -11.9 -16.8 11.9 -16.82zm-27.68 -5.42l11.93 -16.82 11.9 16.82 -11.9 16.77 -11.93 -16.77zm-3.86 5.42l11.91 16.82 -11.91 16.8 -11.91 -16.8 11.91 -16.82zm-27.68 -5.42l11.93 -16.82 11.9 16.82 -11.9 16.77 -11.93 -16.77zm-3.85 5.42l11.93 16.82 -11.93 16.8 -11.9 -16.8 11.9 -16.82zm-27.69 -5.42l11.93 -16.82 11.9 16.82 -11.9 16.77 -11.93 -16.77zm-3.84 5.42l11.91 16.82 -11.91 16.8 -11.92 -16.8 11.92 -16.82zm-27.68 -5.42l11.91 -16.82 11.92 16.82 -11.92 16.77 -11.91 -16.77zm-3.86 5.42l11.9 16.82 -11.9 16.8 -11.9 -16.8 11.9 -16.82zm-27.68 -5.42l11.92 -16.82 11.91 16.82 -11.91 16.77 -11.92 -16.77zm-3.85 5.42l11.92 16.82 -11.92 16.8 -11.92 -16.8 11.92 -16.82zm0 -855.81l-11.92 -16.81 11.92 -16.8 11.92 16.8 -11.92 16.81zm27.68 5.44l-11.91 16.8 -11.92 -16.8 11.92 -16.8 11.91 16.8zm3.85 -5.44l-11.9 -16.81 11.9 -16.8 11.9 16.8 -11.9 16.81zm27.69 5.44l-11.92 16.8 -11.91 -16.8 11.91 -16.8 11.92 16.8zm3.85 -5.44l-11.92 -16.81 11.92 -16.8 11.91 16.8 -11.91 16.81zm27.68 5.44l-11.9 16.8 -11.93 -16.8 11.93 -16.8 11.9 16.8zm3.86 -5.44l-11.9 -16.81 11.9 -16.8 11.93 16.8 -11.93 16.81zm27.68 5.44l-11.9 16.8 -11.93 -16.8 11.93 -16.8 11.9 16.8zm3.85 -5.44l-11.91 -16.81 11.91 -16.8 11.91 16.8 -11.91 16.81zm27.68 5.44l-11.9 16.8 -11.93 -16.8 11.93 -16.8 11.9 16.8zm3.85 -5.44l-11.9 -16.81 11.9 -16.8 11.93 16.8 -11.93 16.81zm27.68 5.44l-11.9 16.8 -11.93 -16.8 11.93 -16.8 11.9 16.8zm3.86 -5.44l-11.9 -16.81 11.9 -16.79 11.91 16.79 -11.91 16.81zm27.68 5.44l-11.91 16.8 -11.93 -16.8 11.93 -16.8 11.91 16.8zm3.85 -5.44l-11.92 -16.81 11.92 -16.79 11.92 16.79 -11.92 16.81zm27.69 5.44l-11.9 16.8 -11.93 -16.8 11.93 -16.8 11.9 16.8zm3.85 -5.44l-11.9 -16.81 11.9 -16.79 11.91 16.79 -11.91 16.81zm27.68 5.44l-11.9 16.8 -11.93 -16.8 11.93 -16.8 11.9 16.8zm3.86 -5.44l-11.9 -16.81 11.9 -16.79 11.91 16.79 -11.91 16.81zm27.68 5.44l-11.9 16.8 -11.91 -16.8 11.91 -16.8 11.9 16.8zm-23.82 800.48l11.91 -16.81 11.9 16.81 -11.9 16.78 -11.91 -16.78zm-3.86 5.41l11.91 16.81 -11.91 16.81 -11.9 -16.81 11.9 -16.81zm-27.69 -5.41l11.93 -16.81 11.9 16.81 -11.9 16.78 -11.93 -16.78zm-3.85 5.41l11.91 16.81 -11.91 16.81 -11.9 -16.81 11.9 -16.81zm-27.68 -5.41l11.93 -16.81 11.9 16.81 -11.9 16.78 -11.93 -16.78zm-3.86 5.41l11.92 16.81 -11.92 16.81 -11.9 -16.81 11.9 -16.81zm-27.68 -5.41l11.93 -16.81 11.91 16.81 -11.91 16.78 -11.93 -16.78zm-3.85 5.41l11.91 16.81 -11.91 16.81 -11.9 -16.81 11.9 -16.81zm-27.69 -5.41l11.93 -16.81 11.9 16.81 -11.9 16.78 -11.93 -16.78zm-3.85 5.41l11.93 16.81 -11.93 16.81 -11.9 -16.81 11.9 -16.81zm-27.68 -5.41l11.93 -16.81 11.9 16.81 -11.9 16.78 -11.93 -16.78zm-3.86 5.41l11.91 16.81 -11.91 16.81 -11.91 -16.81 11.91 -16.81zm-27.68 -5.41l11.93 -16.81 11.9 16.81 -11.9 16.78 -11.93 -16.78zm-3.85 5.41l11.93 16.81 -11.93 16.81 -11.9 -16.81 11.9 -16.81zm-27.69 -5.41l11.93 -16.81 11.9 16.81 -11.9 16.78 -11.93 -16.78zm-3.84 5.41l11.91 16.81 -11.91 16.81 -11.92 -16.81 11.92 -16.81zm-27.68 -5.41l11.91 -16.81 11.92 16.81 -11.92 16.78 -11.91 -16.78zm-3.86 5.41l11.9 16.81 -11.9 16.81 -11.9 -16.81 11.9 -16.81zm-27.68 -5.41l11.92 -16.81 11.91 16.81 -11.91 16.78 -11.92 -16.78zm-3.85 5.41l11.92 16.81 -11.92 16.81 -11.92 -16.81 11.92 -16.81zm0 -766.87l-11.92 -16.79 11.92 -16.8 11.92 16.8 -11.92 16.79zm27.68 5.44l-11.91 16.81 -11.92 -16.81 11.92 -16.8 11.91 16.8zm3.85 -5.44l-11.9 -16.79 11.9 -16.8 11.9 16.8 -11.9 16.79zm27.69 5.44l-11.92 16.81 -11.91 -16.81 11.91 -16.8 11.92 16.8zm3.85 -5.44l-11.92 -16.79 11.92 -16.8 11.91 16.8 -11.91 16.79zm27.68 5.44l-11.9 16.81 -11.93 -16.81 11.93 -16.8 11.9 16.8zm3.86 -5.44l-11.9 -16.79 11.9 -16.8 11.93 16.8 -11.93 16.79zm27.68 5.44l-11.9 16.81 -11.93 -16.81 11.93 -16.8 11.9 16.8zm3.85 -5.44l-11.91 -16.79 11.91 -16.8 11.91 16.8 -11.91 16.79zm27.68 5.44l-11.9 16.81 -11.93 -16.81 11.93 -16.8 11.9 16.8zm3.85 -5.44l-11.9 -16.79 11.9 -16.8 11.93 16.8 -11.93 16.79zm27.68 5.44l-11.9 16.81 -11.93 -16.81 11.93 -16.8 11.9 16.8zm3.86 -5.44l-11.9 -16.79 11.9 -16.8 11.91 16.8 -11.91 16.79zm27.68 5.44l-11.91 16.81 -11.93 -16.81 11.93 -16.8 11.91 16.8zm3.85 -5.44l-11.9 -16.79 11.9 -16.79 11.92 16.79 -11.92 16.79zm27.69 5.44l-11.9 16.81 -11.93 -16.81 11.93 -16.8 11.9 16.8zm3.85 -5.44l-11.9 -16.79 11.9 -16.79 11.91 16.79 -11.91 16.79zm27.68 5.44l-11.9 16.81 -11.93 -16.81 11.93 -16.8 11.9 16.8zm3.86 -5.44l-11.9 -16.79 11.9 -16.79 11.91 16.79 -11.91 16.79zm27.68 5.44l-11.9 16.81 -11.91 -16.81 11.91 -16.8 11.9 16.8zm-23.82 711.52l11.91 -16.78 11.9 16.78 -11.9 16.81 -11.91 -16.81zm-3.86 5.46l11.91 16.79 -11.91 16.79 -11.9 -16.79 11.9 -16.79zm-27.69 -5.46l11.93 -16.78 11.9 16.78 -11.9 16.81 -11.93 -16.81zm-3.85 5.46l11.91 16.79 -11.91 16.79 -11.9 -16.79 11.9 -16.79zm-27.68 -5.46l11.93 -16.78 11.9 16.78 -11.9 16.81 -11.93 -16.81zm-3.86 5.46l11.92 16.79 -11.92 16.79 -11.9 -16.79 11.9 -16.79zm-27.68 -5.46l11.93 -16.78 11.91 16.78 -11.91 16.81 -11.93 -16.81zm-3.85 5.46l11.91 16.79 -11.91 16.79 -11.9 -16.79 11.9 -16.79zm-27.69 -5.46l11.93 -16.78 11.9 16.78 -11.9 16.81 -11.93 -16.81zm-3.85 5.46l11.93 16.79 -11.93 16.79 -11.9 -16.79 11.9 -16.79zm-27.68 -5.46l11.93 -16.78 11.9 16.78 -11.9 16.81 -11.93 -16.81zm-3.86 5.46l11.91 16.79 -11.91 16.79 -11.91 -16.79 11.91 -16.79zm-27.68 -5.46l11.93 -16.78 11.9 16.78 -11.9 16.81 -11.93 -16.81zm-3.85 5.46l11.93 16.79 -11.93 16.79 -11.9 -16.79 11.9 -16.79zm-27.69 -5.46l11.93 -16.78 11.9 16.78 -11.9 16.81 -11.93 -16.81zm-3.84 5.46l11.91 16.79 -11.91 16.79 -11.92 -16.79 11.92 -16.79zm-27.68 -5.46l11.91 -16.78 11.92 16.78 -11.92 16.81 -11.91 -16.81zm-3.86 5.46l11.9 16.79 -11.9 16.79 -11.9 -16.79 11.9 -16.79zm-27.68 -5.46l11.92 -16.78 11.91 16.78 -11.91 16.81 -11.92 -16.81zm-3.85 5.46l11.92 16.79 -11.92 16.79 -11.92 -16.79 11.92 -16.79zm0 -677.95l-11.92 -16.79 11.92 -16.8 11.92 16.8 -11.92 16.79zm27.68 5.43l-11.91 16.79 -11.92 -16.79 11.92 -16.79 11.91 16.79zm3.85 -5.43l-11.9 -16.79 11.9 -16.8 11.9 16.8 -11.9 16.79zm27.69 5.43l-11.92 16.79 -11.91 -16.79 11.91 -16.79 11.92 16.79zm3.85 -5.43l-11.92 -16.79 11.92 -16.8 11.91 16.8 -11.91 16.79zm27.68 5.43l-11.9 16.79 -11.93 -16.79 11.93 -16.79 11.9 16.79zm3.86 -5.43l-11.9 -16.79 11.9 -16.8 11.93 16.8 -11.93 16.79zm27.68 5.43l-11.9 16.79 -11.93 -16.79 11.93 -16.79 11.9 16.79zm3.85 -5.43l-11.91 -16.79 11.91 -16.8 11.91 16.8 -11.91 16.79zm27.68 5.43l-11.9 16.79 -11.93 -16.79 11.93 -16.79 11.9 16.79zm3.85 -5.43l-11.9 -16.79 11.9 -16.8 11.93 16.8 -11.93 16.79zm27.68 5.43l-11.9 16.79 -11.93 -16.79 11.93 -16.79 11.9 16.79zm3.86 -5.43l-11.9 -16.79 11.9 -16.8 11.91 16.8 -11.91 16.79zm27.68 5.43l-11.91 16.79 -11.93 -16.79 11.93 -16.79 11.91 16.79zm3.85 -5.43l-11.9 -16.79 11.9 -16.8 11.92 16.8 -11.92 16.79zm27.69 5.43l-11.9 16.79 -11.93 -16.79 11.93 -16.79 11.9 16.79zm3.85 -5.43l-11.9 -16.79 11.9 -16.8 11.91 16.8 -11.91 16.79zm27.68 5.43l-11.9 16.79 -11.93 -16.79 11.93 -16.79 11.9 16.79zm3.86 -5.43l-11.9 -16.79 11.9 -16.8 11.91 16.8 -11.91 16.79zm27.68 5.43l-11.9 16.79 -11.91 -16.79 11.91 -16.79 11.9 16.79zm-23.82 622.58l11.91 -16.77 11.9 16.77 -11.9 16.82 -11.91 -16.82zm-3.86 5.46l11.91 16.77 -11.91 16.81 -11.9 -16.81 11.9 -16.77zm-27.69 -5.46l11.93 -16.77 11.9 16.77 -11.9 16.82 -11.93 -16.82zm-3.85 5.46l11.91 16.77 -11.91 16.81 -11.9 -16.81 11.9 -16.77zm-27.68 -5.46l11.93 -16.77 11.9 16.77 -11.9 16.82 -11.93 -16.82zm-3.86 5.46l11.92 16.77 -11.92 16.81 -11.9 -16.81 11.9 -16.77zm-27.68 -5.46l11.93 -16.77 11.91 16.77 -11.91 16.82 -11.93 -16.82zm-3.85 5.46l11.91 16.77 -11.91 16.81 -11.9 -16.81 11.9 -16.77zm-27.69 -5.46l11.93 -16.77 11.9 16.77 -11.9 16.82 -11.93 -16.82zm-3.85 5.46l11.93 16.77 -11.93 16.81 -11.9 -16.81 11.9 -16.77zm-27.68 -5.46l11.93 -16.77 11.9 16.77 -11.9 16.82 -11.93 -16.82zm-3.86 5.46l11.91 16.77 -11.91 16.81 -11.91 -16.81 11.91 -16.77zm-27.68 -5.46l11.93 -16.77 11.9 16.77 -11.9 16.82 -11.93 -16.82zm-3.85 5.46l11.93 16.77 -11.93 16.81 -11.9 -16.81 11.9 -16.77zm-27.69 -5.46l11.93 -16.77 11.9 16.77 -11.9 16.82 -11.93 -16.82zm-3.84 5.46l11.91 16.77 -11.91 16.81 -11.92 -16.81 11.92 -16.77zm-27.68 -5.46l11.91 -16.77 11.92 16.77 -11.92 16.82 -11.91 -16.82zm-3.86 5.46l11.9 16.77 -11.9 16.81 -11.9 -16.81 11.9 -16.77zm-27.68 -5.46l11.92 -16.77 11.91 16.77 -11.91 16.82 -11.92 -16.82zm-3.85 5.46l11.92 16.77 -11.92 16.81 -11.92 -16.81 11.92 -16.77zm0 -588.99l-11.92 -16.8 11.92 -16.81 11.92 16.81 -11.92 16.8zm27.68 5.44l-11.91 16.77 -11.92 -16.77 11.92 -16.81 11.91 16.81zm3.85 -5.44l-11.9 -16.8 11.9 -16.81 11.9 16.81 -11.9 16.8zm27.69 5.44l-11.92 16.77 -11.91 -16.77 11.91 -16.81 11.92 16.81zm3.85 -5.44l-11.92 -16.8 11.92 -16.81 11.91 16.81 -11.91 16.8zm27.68 5.44l-11.9 16.77 -11.93 -16.77 11.93 -16.81 11.9 16.81zm3.86 -5.44l-11.9 -16.8 11.9 -16.81 11.93 16.81 -11.93 16.8zm27.68 5.44l-11.9 16.77 -11.93 -16.77 11.93 -16.81 11.9 16.81zm3.85 -5.44l-11.91 -16.8 11.91 -16.81 11.91 16.81 -11.91 16.8zm27.68 5.44l-11.9 16.77 -11.93 -16.77 11.93 -16.81 11.9 16.81zm3.85 -5.44l-11.9 -16.8 11.9 -16.81 11.93 16.81 -11.93 16.8zm27.68 5.44l-11.9 16.77 -11.93 -16.77 11.93 -16.81 11.9 16.81zm3.86 -5.44l-11.9 -16.8 11.9 -16.81 11.91 16.81 -11.91 16.8zm27.68 5.44l-11.91 16.77 -11.93 -16.77 11.93 -16.81 11.91 16.81zm3.85 -5.44l-11.9 -16.8 11.9 -16.81 11.92 16.81 -11.92 16.8zm27.69 5.44l-11.9 16.77 -11.93 -16.77 11.93 -16.81 11.9 16.81zm3.85 -5.44l-11.9 -16.8 11.9 -16.81 11.91 16.81 -11.91 16.8zm27.68 5.44l-11.9 16.77 -11.93 -16.77 11.93 -16.81 11.9 16.81zm3.86 -5.44l-11.9 -16.8 11.9 -16.81 11.91 16.81 -11.91 16.8zm27.68 5.44l-11.9 16.77 -11.91 -16.77 11.91 -16.81 11.9 16.81zm-23.82 533.64l11.91 -16.79 11.9 16.79 -11.9 16.79 -11.91 -16.79zm-3.86 5.44l11.91 16.8 -11.91 16.79 -11.9 -16.79 11.9 -16.8zm-27.69 -5.44l11.93 -16.79 11.9 16.79 -11.9 16.79 -11.93 -16.79zm-3.85 5.44l11.91 16.8 -11.91 16.79 -11.9 -16.79 11.9 -16.8zm-27.68 -5.44l11.93 -16.79 11.9 16.79 -11.9 16.79 -11.93 -16.79zm-3.86 5.44l11.92 16.8 -11.92 16.79 -11.9 -16.79 11.9 -16.8zm-27.68 -5.44l11.93 -16.79 11.91 16.79 -11.91 16.79 -11.93 -16.79zm-3.85 5.44l11.91 16.8 -11.91 16.79 -11.9 -16.79 11.9 -16.8zm-27.69 -5.44l11.93 -16.79 11.9 16.79 -11.9 16.79 -11.93 -16.79zm-3.85 5.44l11.93 16.8 -11.93 16.79 -11.9 -16.79 11.9 -16.8zm-27.68 -5.44l11.93 -16.79 11.9 16.79 -11.9 16.79 -11.93 -16.79zm-3.86 5.44l11.91 16.8 -11.91 16.79 -11.91 -16.79 11.91 -16.8zm-27.68 -5.44l11.93 -16.79 11.9 16.79 -11.9 16.79 -11.93 -16.79zm-3.85 5.44l11.93 16.8 -11.93 16.79 -11.9 -16.79 11.9 -16.8zm-27.69 -5.44l11.93 -16.79 11.9 16.79 -11.9 16.79 -11.93 -16.79zm-3.84 5.44l11.91 16.8 -11.91 16.79 -11.92 -16.79 11.92 -16.8zm-27.68 -5.44l11.91 -16.79 11.92 16.79 -11.92 16.79 -11.91 -16.79zm-3.86 5.44l11.9 16.8 -11.9 16.79 -11.9 -16.79 11.9 -16.8zm-27.68 -5.44l11.92 -16.79 11.91 16.79 -11.91 16.79 -11.92 -16.79zm-3.85 5.44l11.92 16.8 -11.92 16.79 -11.92 -16.79 11.92 -16.8zm0 -500.07l-11.92 -16.79 11.92 -16.79 11.92 16.79 -11.92 16.79zm27.68 5.45l-11.91 16.79 -11.92 -16.79 11.92 -16.8 11.91 16.8zm3.85 -5.45l-11.9 -16.79 11.9 -16.79 11.9 16.79 -11.9 16.79zm27.69 5.45l-11.92 16.79 -11.91 -16.79 11.91 -16.8 11.92 16.8zm3.85 -5.45l-11.92 -16.79 11.92 -16.79 11.91 16.79 -11.91 16.79zm27.68 5.45l-11.9 16.79 -11.93 -16.79 11.93 -16.8 11.9 16.8zm3.86 -5.45l-11.9 -16.79 11.9 -16.79 11.93 16.79 -11.93 16.79zm27.68 5.45l-11.9 16.79 -11.93 -16.79 11.93 -16.8 11.9 16.8zm3.85 -5.45l-11.91 -16.79 11.91 -16.79 11.91 16.79 -11.91 16.79zm27.68 5.45l-11.9 16.79 -11.93 -16.79 11.93 -16.8 11.9 16.8zm3.85 -5.45l-11.9 -16.79 11.9 -16.79 11.93 16.79 -11.93 16.79zm27.68 5.45l-11.9 16.79 -11.93 -16.79 11.93 -16.8 11.9 16.8zm3.86 -5.45l-11.9 -16.79 11.9 -16.79 11.91 16.79 -11.91 16.79zm27.68 5.45l-11.91 16.79 -11.93 -16.79 11.93 -16.8 11.91 16.8zm3.85 -5.45l-11.9 -16.79 11.9 -16.79 11.92 16.79 -11.92 16.79zm27.69 5.45l-11.9 16.79 -11.93 -16.79 11.93 -16.8 11.9 16.8zm3.85 -5.45l-11.9 -16.79 11.9 -16.79 11.91 16.79 -11.91 16.79zm27.68 5.45l-11.9 16.79 -11.93 -16.79 11.93 -16.8 11.9 16.8zm3.86 -5.45l-11.9 -16.79 11.9 -16.79 11.91 16.79 -11.91 16.79zm3.86 5.45l11.91 -16.8 11.9 16.8 -11.9 16.79 -11.91 -16.79zm0 44.45l11.91 -16.77 11.9 16.77 -11.9 16.81 -11.91 -16.81zm0 44.49l11.91 -16.8 11.9 16.8 -11.9 16.79 -11.91 -16.79zm0 44.45l11.91 -16.8 11.9 16.8 -11.9 16.81 -11.91 -16.81zm0 44.48l11.91 -16.79 11.9 16.79 -11.9 16.82 -11.91 -16.82zm0 44.47l11.91 -16.8 11.9 16.8 -11.9 16.79 -11.91 -16.79zm0 44.49l11.91 -16.82 11.9 16.82 -11.9 16.78 -11.91 -16.78zm0 44.46l11.91 -16.82 11.9 16.82 -11.9 16.8 -11.91 -16.8zm0 44.46l11.91 -16.77 11.9 16.77 -11.9 16.82 -11.91 -16.82zm0 44.48l11.91 -16.79 11.9 16.79 -11.9 16.82 -11.91 -16.82zm0 44.48l11.91 -16.78 11.9 16.78 -11.9 16.82 -11.91 -16.82zm-3.86 5.46l11.91 16.79 -11.91 16.79 -11.9 -16.79 11.9 -16.79zm-27.69 -5.46l11.93 -16.78 11.9 16.78 -11.9 16.82 -11.93 -16.82zm-3.85 5.46l11.91 16.79 -11.91 16.79 -11.9 -16.79 11.9 -16.79zm-27.68 -5.46l11.93 -16.78 11.9 16.78 -11.9 16.82 -11.93 -16.82zm-3.86 5.46l11.92 16.79 -11.92 16.79 -11.9 -16.79 11.9 -16.79zm-27.68 -5.46l11.93 -16.78 11.91 16.78 -11.91 16.82 -11.93 -16.82zm-3.85 5.46l11.91 16.79 -11.91 16.79 -11.9 -16.79 11.9 -16.79zm-27.69 -5.46l11.93 -16.78 11.9 16.78 -11.9 16.82 -11.93 -16.82zm-3.85 5.46l11.93 16.79 -11.93 16.79 -11.9 -16.79 11.9 -16.79zm-27.68 -5.46l11.93 -16.78 11.9 16.78 -11.9 16.82 -11.93 -16.82zm-3.86 5.46l11.91 16.79 -11.91 16.79 -11.91 -16.79 11.91 -16.79zm-27.68 -5.46l11.93 -16.78 11.9 16.78 -11.9 16.82 -11.93 -16.82zm-3.85 5.46l11.93 16.79 -11.93 16.79 -11.9 -16.79 11.9 -16.79zm-27.69 -5.46l11.93 -16.78 11.9 16.78 -11.9 16.82 -11.93 -16.82zm-3.84 5.46l11.91 16.79 -11.91 16.79 -11.92 -16.79 11.92 -16.79zm-27.68 -5.46l11.91 -16.78 11.92 16.78 -11.92 16.82 -11.91 -16.82zm-3.86 5.46l11.9 16.79 -11.9 16.79 -11.9 -16.79 11.9 -16.79zm-27.68 -5.46l11.92 -16.78 11.91 16.78 -11.91 16.82 -11.92 -16.82zm-3.85 5.46l11.92 16.79 -11.92 16.79 -11.92 -16.79 11.92 -16.79zm0 -411.12l-11.92 -16.81 11.92 -16.79 11.92 16.79 -11.92 16.81zm27.68 5.42l-11.91 16.81 -11.92 -16.81 11.92 -16.77 11.91 16.77zm3.85 -5.42l-11.9 -16.81 11.9 -16.79 11.9 16.79 -11.9 16.81zm27.69 5.42l-11.92 16.81 -11.91 -16.81 11.91 -16.77 11.92 16.77zm3.85 -5.42l-11.92 -16.81 11.92 -16.79 11.91 16.79 -11.91 16.81zm27.68 5.42l-11.9 16.81 -11.93 -16.81 11.93 -16.77 11.9 16.77zm3.86 -5.42l-11.9 -16.81 11.9 -16.79 11.93 16.79 -11.93 16.81zm27.68 5.42l-11.9 16.81 -11.93 -16.81 11.93 -16.77 11.9 16.77zm3.85 -5.42l-11.91 -16.81 11.91 -16.79 11.91 16.79 -11.91 16.81zm27.68 5.42l-11.9 16.81 -11.93 -16.81 11.93 -16.77 11.9 16.77zm3.85 -5.42l-11.9 -16.81 11.9 -16.79 11.93 16.79 -11.93 16.81zm27.68 5.42l-11.9 16.81 -11.93 -16.81 11.93 -16.77 11.9 16.77zm3.86 -5.42l-11.9 -16.81 11.9 -16.79 11.91 16.79 -11.91 16.81zm27.68 5.42l-11.91 16.81 -11.93 -16.81 11.93 -16.77 11.91 16.77zm3.85 -5.42l-11.9 -16.81 11.9 -16.79 11.92 16.79 -11.92 16.81zm27.69 5.42l-11.9 16.81 -11.93 -16.81 11.93 -16.77 11.9 16.77zm3.85 -5.42l-11.9 -16.81 11.9 -16.79 11.91 16.79 -11.91 16.81zm27.68 5.42l-11.9 16.81 -11.93 -16.81 11.93 -16.77 11.9 16.77zm-8.04 -22.22l11.9 -16.79 11.91 16.79 -11.91 16.81 -11.9 -16.81zm0 44.48l11.9 -16.8 11.91 16.8 -11.91 16.79 -11.9 -16.79zm0 44.47l11.9 -16.79 11.91 16.79 -11.91 16.8 -11.9 -16.8zm0 44.47l11.9 -16.8 11.91 16.8 -11.91 16.8 -11.9 -16.8zm0 44.49l11.9 -16.81 11.91 16.81 -11.91 16.79 -11.9 -16.79zm0 44.45l11.9 -16.79 11.91 16.79 -11.91 16.8 -11.9 -16.8zm0 44.46l11.9 -16.78 11.91 16.78 -11.91 16.83 -11.9 -16.83zm0 44.49l11.9 -16.79 11.91 16.79 -11.91 16.79 -11.9 -16.79zm0 44.45l11.9 -16.77 11.91 16.77 -11.91 16.82 -11.9 -16.82zm11.9 27.68l11.91 16.81 -11.91 16.79 -11.9 -16.79 11.9 -16.81zm-27.69 -5.44l11.93 -16.79 11.9 16.79 -11.9 16.82 -11.93 -16.82zm-3.85 5.44l11.91 16.81 -11.91 16.79 -11.9 -16.79 11.9 -16.81zm-27.68 -5.44l11.93 -16.79 11.9 16.79 -11.9 16.82 -11.93 -16.82zm-3.86 5.44l11.92 16.81 -11.92 16.79 -11.9 -16.79 11.9 -16.81zm-27.68 -5.44l11.93 -16.79 11.91 16.79 -11.91 16.82 -11.93 -16.82zm-3.85 5.44l11.91 16.81 -11.91 16.79 -11.9 -16.79 11.9 -16.81zm-27.69 -5.44l11.93 -16.79 11.9 16.79 -11.9 16.82 -11.93 -16.82zm-3.85 5.44l11.93 16.81 -11.93 16.79 -11.9 -16.79 11.9 -16.81zm-27.68 -5.44l11.93 -16.79 11.9 16.79 -11.9 16.82 -11.93 -16.82zm-3.86 5.44l11.91 16.81 -11.91 16.79 -11.91 -16.79 11.91 -16.81zm-27.68 -5.44l11.93 -16.79 11.9 16.79 -11.9 16.82 -11.93 -16.82zm-3.85 5.44l11.93 16.81 -11.93 16.79 -11.9 -16.79 11.9 -16.81zm-27.69 -5.44l11.93 -16.79 11.9 16.79 -11.9 16.82 -11.93 -16.82zm-3.84 5.44l11.91 16.81 -11.91 16.79 -11.92 -16.79 11.92 -16.81zm-27.68 -5.44l11.91 -16.79 11.92 16.79 -11.92 16.82 -11.91 -16.82zm-3.86 5.44l11.9 16.81 -11.9 16.79 -11.9 -16.79 11.9 -16.81zm-27.68 -5.44l11.92 -16.79 11.91 16.79 -11.91 16.82 -11.92 -16.82zm-3.85 5.44l11.92 16.81 -11.92 16.79 -11.92 -16.79 11.92 -16.81zm0 -322.16l-11.92 -16.79 11.92 -16.8 11.92 16.8 -11.92 16.79zm27.68 5.44l-11.91 16.79 -11.92 -16.79 11.92 -16.8 11.91 16.8zm3.85 -5.44l-11.9 -16.79 11.9 -16.8 11.9 16.8 -11.9 16.79zm27.69 5.44l-11.92 16.79 -11.91 -16.79 11.91 -16.8 11.92 16.8zm3.85 -5.44l-11.92 -16.79 11.92 -16.8 11.91 16.8 -11.91 16.79zm27.68 5.44l-11.9 16.79 -11.93 -16.79 11.93 -16.8 11.9 16.8zm3.86 -5.44l-11.9 -16.79 11.9 -16.8 11.93 16.8 -11.93 16.79zm27.68 5.44l-11.9 16.79 -11.93 -16.79 11.93 -16.8 11.9 16.8zm3.85 -5.44l-11.91 -16.79 11.91 -16.8 11.91 16.8 -11.91 16.79zm27.68 5.44l-11.9 16.79 -11.93 -16.79 11.93 -16.8 11.9 16.8zm3.85 -5.44l-11.9 -16.79 11.9 -16.8 11.93 16.8 -11.93 16.79zm27.68 5.44l-11.9 16.79 -11.93 -16.79 11.93 -16.8 11.9 16.8zm3.86 -5.44l-11.9 -16.79 11.9 -16.8 11.91 16.8 -11.91 16.79zm27.68 5.44l-11.91 16.79 -11.93 -16.79 11.93 -16.8 11.91 16.8zm3.85 -5.44l-11.9 -16.79 11.9 -16.8 11.92 16.8 -11.92 16.79zm27.69 5.44l-11.9 16.79 -11.93 -16.79 11.93 -16.8 11.9 16.8zm3.85 -5.44l-11.9 -16.79 11.9 -16.8 11.91 16.8 -11.91 16.79zm3.85 5.44l11.93 -16.8 11.9 16.8 -11.9 16.79 -11.93 -16.79zm0 44.45l11.93 -16.8 11.9 16.8 -11.9 16.81 -11.93 -16.81zm0 44.48l11.93 -16.79 11.9 16.79 -11.9 16.82 -11.93 -16.82zm0 44.47l11.93 -16.8 11.9 16.8 -11.9 16.79 -11.93 -16.79zm0 44.49l11.93 -16.82 11.9 16.82 -11.9 16.78 -11.93 -16.78zm0 44.46l11.93 -16.82 11.9 16.82 -11.9 16.8 -11.93 -16.8zm0 44.46l11.93 -16.77 11.9 16.77 -11.9 16.82 -11.93 -16.82zm-3.85 5.46l11.91 16.77 -11.91 16.82 -11.9 -16.82 11.9 -16.77zm-27.68 -5.46l11.93 -16.77 11.9 16.77 -11.9 16.82 -11.93 -16.82zm-3.86 5.46l11.92 16.77 -11.92 16.82 -11.9 -16.82 11.9 -16.77zm-27.68 -5.46l11.93 -16.77 11.91 16.77 -11.91 16.82 -11.93 -16.82zm-3.85 5.46l11.91 16.77 -11.91 16.82 -11.9 -16.82 11.9 -16.77zm-27.69 -5.46l11.93 -16.77 11.9 16.77 -11.9 16.82 -11.93 -16.82zm-3.85 5.46l11.93 16.77 -11.93 16.82 -11.9 -16.82 11.9 -16.77zm-27.68 -5.46l11.93 -16.77 11.9 16.77 -11.9 16.82 -11.93 -16.82zm-3.86 5.46l11.91 16.77 -11.91 16.82 -11.91 -16.82 11.91 -16.77zm-27.68 -5.46l11.93 -16.77 11.9 16.77 -11.9 16.82 -11.93 -16.82zm-3.85 5.46l11.93 16.77 -11.93 16.82 -11.9 -16.82 11.9 -16.77zm-27.69 -5.46l11.93 -16.77 11.9 16.77 -11.9 16.82 -11.93 -16.82zm-3.84 5.46l11.91 16.77 -11.91 16.82 -11.92 -16.82 11.92 -16.77zm-27.68 -5.46l11.91 -16.77 11.92 16.77 -11.92 16.82 -11.91 -16.82zm-3.86 5.46l11.9 16.77 -11.9 16.82 -11.9 -16.82 11.9 -16.77zm-27.68 -5.46l11.92 -16.77 11.91 16.77 -11.91 16.82 -11.92 -16.82zm-3.85 5.46l11.92 16.77 -11.92 16.82 -11.92 -16.82 11.92 -16.77zm0 -233.22l-11.92 -16.8 11.92 -16.79 11.92 16.79 -11.92 16.8zm27.68 5.42l-11.91 16.81 -11.92 -16.81 11.92 -16.8 11.91 16.8zm3.85 -5.42l-11.9 -16.8 11.9 -16.79 11.9 16.79 -11.9 16.8zm27.69 5.42l-11.92 16.81 -11.91 -16.81 11.91 -16.8 11.92 16.8zm3.85 -5.42l-11.92 -16.8 11.92 -16.79 11.91 16.79 -11.91 16.8zm27.68 5.42l-11.9 16.81 -11.93 -16.81 11.93 -16.8 11.9 16.8zm3.86 -5.42l-11.9 -16.8 11.9 -16.79 11.93 16.79 -11.93 16.8zm27.68 5.42l-11.9 16.81 -11.93 -16.81 11.93 -16.8 11.9 16.8zm3.85 -5.42l-11.91 -16.8 11.91 -16.79 11.91 16.79 -11.91 16.8zm27.68 5.42l-11.9 16.81 -11.93 -16.81 11.93 -16.8 11.9 16.8zm3.85 -5.42l-11.9 -16.8 11.9 -16.79 11.93 16.79 -11.93 16.8zm27.68 5.42l-11.9 16.81 -11.93 -16.81 11.93 -16.8 11.9 16.8zm3.86 -5.42l-11.9 -16.8 11.9 -16.79 11.91 16.79 -11.91 16.8zm27.68 5.42l-11.91 16.81 -11.93 -16.81 11.93 -16.8 11.91 16.8zm3.85 -5.42l-11.9 -16.8 11.9 -16.79 11.92 16.79 -11.92 16.8zm27.69 5.42l-11.9 16.81 -11.93 -16.81 11.93 -16.8 11.9 16.8zm-8.05 -22.22l11.9 -16.79 11.91 16.79 -11.91 16.8 -11.9 -16.8zm0 44.47l11.9 -16.8 11.91 16.8 -11.91 16.8 -11.9 -16.8zm0 44.49l11.9 -16.81 11.91 16.81 -11.91 16.79 -11.9 -16.79zm0 44.45l11.9 -16.79 11.91 16.79 -11.91 16.8 -11.9 -16.8zm0 44.46l11.9 -16.78 11.91 16.78 -11.91 16.83 -11.9 -16.83zm11.9 27.69l11.91 16.79 -11.91 16.79 -11.9 -16.79 11.9 -16.79zm-27.68 -5.45l11.93 -16.82 11.9 16.82 -11.9 16.8 -11.93 -16.8zm-3.86 5.45l11.92 16.79 -11.92 16.79 -11.9 -16.79 11.9 -16.79zm-27.68 -5.45l11.93 -16.82 11.91 16.82 -11.91 16.8 -11.93 -16.8zm-3.85 5.45l11.91 16.79 -11.91 16.79 -11.9 -16.79 11.9 -16.79zm-27.69 -5.45l11.93 -16.82 11.9 16.82 -11.9 16.8 -11.93 -16.8zm-3.85 5.45l11.93 16.79 -11.93 16.79 -11.9 -16.79 11.9 -16.79zm-27.68 -5.45l11.93 -16.82 11.9 16.82 -11.9 16.8 -11.93 -16.8zm-3.86 5.45l11.91 16.79 -11.91 16.79 -11.91 -16.79 11.91 -16.79zm-27.68 -5.45l11.93 -16.82 11.9 16.82 -11.9 16.8 -11.93 -16.8zm-3.85 5.45l11.93 16.79 -11.93 16.79 -11.9 -16.79 11.9 -16.79zm-27.69 -5.45l11.93 -16.82 11.9 16.82 -11.9 16.8 -11.93 -16.8zm-3.84 5.45l11.91 16.79 -11.91 16.79 -11.92 -16.79 11.92 -16.79zm-27.68 -5.45l11.91 -16.82 11.92 16.82 -11.92 16.8 -11.91 -16.8zm-3.86 5.45l11.9 16.79 -11.9 16.79 -11.9 -16.79 11.9 -16.79zm-27.68 -5.45l11.92 -16.82 11.91 16.82 -11.91 16.8 -11.92 -16.8zm-3.85 5.45l11.92 16.79 -11.92 16.79 -11.92 -16.79 11.92 -16.79zm0 -144.29l-11.92 -16.8 11.92 -16.8 11.92 16.8 -11.92 16.8zm27.68 5.43l-11.91 16.82 -11.92 -16.82 11.92 -16.79 11.91 16.79zm3.85 -5.43l-11.9 -16.8 11.9 -16.8 11.9 16.8 -11.9 16.8zm27.69 5.43l-11.92 16.82 -11.91 -16.82 11.91 -16.79 11.92 16.79zm3.85 -5.43l-11.92 -16.8 11.92 -16.8 11.91 16.8 -11.91 16.8zm27.68 5.43l-11.9 16.82 -11.93 -16.82 11.93 -16.79 11.9 16.79zm3.86 -5.43l-11.9 -16.8 11.9 -16.8 11.93 16.8 -11.93 16.8zm27.68 5.43l-11.9 16.82 -11.93 -16.82 11.93 -16.79 11.9 16.79zm3.85 -5.43l-11.91 -16.8 11.91 -16.8 11.91 16.8 -11.91 16.8zm27.68 5.43l-11.9 16.82 -11.93 -16.82 11.93 -16.79 11.9 16.79zm3.85 -5.43l-11.9 -16.8 11.9 -16.8 11.93 16.8 -11.93 16.8zm27.68 5.43l-11.9 16.82 -11.93 -16.82 11.93 -16.79 11.9 16.79zm3.86 -5.43l-11.9 -16.8 11.9 -16.8 11.91 16.8 -11.91 16.8zm27.68 5.43l-11.91 16.82 -11.93 -16.82 11.93 -16.79 11.91 16.79zm3.85 -5.43l-11.9 -16.8 11.9 -16.8 11.92 16.8 -11.92 16.8zm3.86 5.43l11.93 -16.79 11.9 16.79 -11.9 16.82 -11.93 -16.82zm0 44.47l11.93 -16.8 11.9 16.8 -11.9 16.79 -11.93 -16.79zm0 44.49l11.93 -16.82 11.9 16.82 -11.9 16.78 -11.93 -16.78zm-3.86 5.43l11.92 16.78 -11.92 16.83 -11.9 -16.83 11.9 -16.78zm-27.68 -5.43l11.93 -16.82 11.91 16.82 -11.91 16.78 -11.93 -16.78zm-3.85 5.43l11.91 16.78 -11.91 16.83 -11.9 -16.83 11.9 -16.78zm-27.69 -5.43l11.93 -16.82 11.9 16.82 -11.9 16.78 -11.93 -16.78zm-3.85 5.43l11.93 16.78 -11.93 16.83 -11.9 -16.83 11.9 -16.78zm-27.68 -5.43l11.93 -16.82 11.9 16.82 -11.9 16.78 -11.93 -16.78zm-3.86 5.43l11.91 16.78 -11.91 16.83 -11.91 -16.83 11.91 -16.78zm-27.68 -5.43l11.93 -16.82 11.9 16.82 -11.9 16.78 -11.93 -16.78zm-3.85 5.43l11.93 16.78 -11.93 16.83 -11.9 -16.83 11.9 -16.78zm-27.69 -5.43l11.93 -16.82 11.9 16.82 -11.9 16.78 -11.93 -16.78zm-3.84 5.43l11.91 16.78 -11.91 16.83 -11.92 -16.83 11.92 -16.78zm-27.68 -5.43l11.91 -16.82 11.92 16.82 -11.92 16.78 -11.91 -16.78zm-3.86 5.43l11.9 16.78 -11.9 16.83 -11.9 -16.83 11.9 -16.78zm-27.68 -5.43l11.92 -16.82 11.91 16.82 -11.91 16.78 -11.92 -16.78zm-3.85 5.43l11.92 16.78 -11.92 16.83 -11.92 -16.83 11.92 -16.78zm0 -55.34l-11.92 -16.79 11.92 -16.81 11.92 16.81 -11.92 16.79zm11.92 27.65l-11.92 16.8 -11.92 -16.8 11.92 -16.79 11.92 16.79zm15.76 -22.23l-11.91 16.79 -11.92 -16.79 11.92 -16.8 11.91 16.8zm3.85 -5.42l-11.9 -16.79 11.9 -16.81 11.9 16.81 -11.9 16.79zm11.9 27.65l-11.9 16.8 -11.9 -16.8 11.9 -16.79 11.9 16.79zm15.79 -22.23l-11.92 16.79 -11.91 -16.79 11.91 -16.8 11.92 16.8zm3.85 -5.42l-11.92 -16.79 11.92 -16.81 11.91 16.81 -11.91 16.79zm11.91 27.65l-11.91 16.8 -11.92 -16.8 11.92 -16.79 11.91 16.79zm15.76 -22.23l-11.9 16.79 -11.93 -16.79 11.93 -16.8 11.9 16.8zm3.86 -5.42l-11.9 -16.79 11.9 -16.81 11.93 16.81 -11.93 16.79zm11.93 27.65l-11.93 16.8 -11.9 -16.8 11.9 -16.79 11.93 16.79zm15.75 -22.23l-11.9 16.79 -11.93 -16.79 11.93 -16.8 11.9 16.8zm3.85 -5.42l-11.91 -16.79 11.91 -16.81 11.91 16.81 -11.91 16.79zm11.91 27.65l-11.91 16.8 -11.91 -16.8 11.91 -16.79 11.91 16.79zm15.77 -22.23l-11.9 16.79 -11.93 -16.79 11.93 -16.8 11.9 16.8zm3.85 -5.42l-11.9 -16.79 11.9 -16.81 11.93 16.81 -11.93 16.79zm11.93 27.65l-11.93 16.8 -11.9 -16.8 11.9 -16.79 11.93 16.79zm15.75 -22.23l-11.9 16.79 -11.93 -16.79 11.93 -16.8 11.9 16.8zm3.86 -5.42l-11.9 -16.79 11.9 -16.81 11.91 16.81 -11.91 16.79zm11.91 27.65l-11.91 16.8 -11.9 -16.8 11.9 -16.79 11.91 16.79zm15.77 -22.23l-11.91 16.79 -11.93 -16.79 11.93 -16.8 11.91 16.8zm15.76 22.23l-11.92 16.8 -11.9 -16.8 11.9 -16.79 11.92 16.79zm-23.82 -44.45l11.9 -16.81 11.92 16.81 -11.92 16.79 -11.9 -16.79z"/>
  </g>
 </g>
</svg>
